<?xml version="1.0" encoding="UTF-8"?>
<svg id="Ebene_1" xmlns="http://www.w3.org/2000/svg" baseProfile="tiny" version="1.2" viewBox="0 0 703.35 184.25">
  <!-- Generator: Adobe Illustrator 29.5.1, SVG Export Plug-In . SVG Version: 2.1.0 Build 141)  -->
  <g>
    <path d="M172.64,97.38c-2.27-6.98-13.9-20.95-20.62-25.78.73,7.57,3.2,14.65,4.5,22.14.46,1.74-1.39,2.35-2.24,3.29-6.17,3.58-12.34,7.22-18.65,10.43-1.26.79-3.3,1.09-4.65.67-12.21-15.04-23.11-31.09-30.56-48.47-.25.51,2.56,19.72,2.56,19.72.17,1.76,1.13,12.68,1.13,12.68-.03,5.63-.06,11.42-.07,17.43-3.63,3.1-8.92,3.6-11.88,7.27-2.17.02-4.16-1.46-6.06-2.55-7.61-5.22-22.29-20.43-23-21.66-4.04-4.06-14.5-17.66-16.01-19.77,1.57,9.9,4.82,20.02,7.25,30.03.13,2.86,4.15,5.6.96,8.39-.69.76-1.71.93-2.67,1.1.75,3.49,1.98,7.44,3.58,10.93,0,1.71-3.01,2.89-1.06,4.7,2.26,6.48,5.39,13.14,8.06,19.77-.03.39-.99,1.39.1,1.43h0l-.37.41h0s.7,1.06.58.9c-.2.4.22.76.61.62h0l-.39.19.73.62h0c-1.93.28-2.02-2.8-3.03-4.23.97-.83-.82-1.16-.99-1.93-.17-.76-.32-1.36-.81-1.94-.21.34-.92-.05-.94.5,1.38.14.83,2.21,1.86,3.03.63.95.21,2.36,1.47,3.11.17.82-.14,1.39.8,1.77.29.98.64,2.72.59,2.89.03.49.29.09-.3-.26.34-1.73-2.34-2.45-2.07-4.51-.75-.95-.43-2.18-1.69-3.04-1.45-.35.67-2.03-1.3-2.29.23-.9-.76-1.17-.35-1.85-.19-.21-.46-.08-.69-.07,2.04,6.61,5.38,12.98,8.26,19.37,1.73,3.65,3.63,7.28,6.08,10.61-.19,1.45-2.01,1.56-2.86,2.55-1.01,1.11-2.78,1.22-3.43,2.59-.37.46-.95,1.16-1.69,1.32-6.41-9.49-10.42-20.06-15.06-30.38h0l-.37.46h0c-.43-.42.74-.93-.09-1.32-.17.06-.69-1.73-.69-1.73h0l-.1.17h0c.35-.74-.69-1.83-.69-1.83,0,0-.34-.81-.45-.75h0l-.21-1.48h0c-.24-.21-.29-.92-.49-1.4-.72-1.34-1.69-3.98-1.53-4.16.12-.73-.44-.63-.44-.63-.68-.79.36-1.51-.82-2.05,0,0,0-.83-.48-1.19.37-.46-.13-1.04-.39-1.58h0l-.42-.36h0c.51-.09.17-.89.02-1.44-.58.7-.5-.58-.75-.89-.06-.05-.79.16-.79.16-.17.07-.38.24-.43.47h0l-.43-.42h0c-.32.35.47,1.08.47,1.08h0l-.37.41.69.07h0s.34.81.47,1.02c.07.22-.06.83-.06.83-.14.51,1.43.85.49,1.29.14.32.17.04-.12-.16-.3.68.06,1.71.42,1.96.1.6,1.11.37,1.08-.18,0,0,0,1.88.25,2.08h0l.27-.24.43.47h0c-.15.4-1.13,1.01-1.13,1.12.67.62,1.12-.4,1.52.46h0l.33.64h0c-.49.36-1.33-.19-1.32.74.71.29-.08.45.56.74,0,0,.24.15-.19.56.35.14.33.64.74.89h0l.07-.67.58.07h0c-.33.19-.36,1.51-.46,1.63-.1.23.14.38.32.53-.65.54.77.45-.11.89,1.01-.23.34,1.64,1.37,1.68-.8.82.04,1.49.15,2.2h0l.72.51h0c-.34.08-.67.21-1.08.18-.16.18.03.49.33.64,0,0,.9.66.76,1.17-.17,0-.35-.03-.45.14.4.03.55.52.37,1.19,1.28-.58.94,1.16,1.38,1.79-.44,1.19,1.03,1.76,1.01,3.09-.08.45-.47-.25-.67.32.67.57.46.85-.02,1.44-.43-.47.38-1.24-.35-1.03-.11.12.19-.62-.35-.92.49-.36-.49-.41-.34-.75.17.04.22-.07.28-.13-.36-.31-.43-.47-.58-.9.12.05.17-.06.22-.18.14-.51-.42-.25-.54-.35-.23-.92-.87-1.82-.87-2.71-.46-.85-.77-2.1-1.29-3.12-.61-2.28-1.66-5.2-2.42-7.14-1.19-3.29-2.04-6.61-3.52-10-.14-1.26-.33-2.41-.93-3.64-.65-1.23-1.5-3.61-1.5-3.61.49-1.25-1.96-8-2.52-8.73.14-1.39-.96-4.19-.96-4.19-.38-.53-4.2-15.09-4.73-19.58-1.06-2.2-4.67-25.55-4.67-25.55-1.02-12.75-2.97-28.36-2.96-42.05.11-.89,1.89,0,1.46-1.31.04-2.87-1.22-6.27,1.34-8.31,2.6-.49,5.3-1.15,7.59-2.01-.23-.87-.74-1.61-.63-2.61,2.79-1.94,5.9-3.35,8.89-4.8.38,1.36.75,2.66,1.12,4.02,5.94,17.96,24.89,51.08,24.89,51.08,0,0,7.49,10.3,7.73,10.51,2,2.53,6.88,8.85,6.88,8.85h0l-.12-.1h0c.04.66,3.78,4.4,4.06,5.16.36.25,1.24,1.41,1.73,1.88,0,0-5.93-42.86-10.48-63.23h0l-.6-.46h0c.82-1.49,1.77-2.59,3.2-3.51,3.37-.1,6.73-1.13,9.97-1.44.28-3.55,4.86-2.67,7.29-3.98.93-.61,2.12-.79,3.18-1.14,1.41.52,1.86,2.15,2.68,3.26,13.43,20.54,19.49,44.57,34.91,64.1-1.57-7.25-3.79-14.89-5.38-22.47-1.59-7.52-4.56-23.96-4.56-23.96-.6-7.25-.84-15.19-1.27-22.56.41-.74,1.24-.35,1.9-.67h0l6.86-1.75.3.26h0c.05-.06.16-.18.15-.28h.11c.39.69-.29,2.44-.23,2.55h0l.12.1h-.11c-.31.58-.21,5.49.12,6.13.63.07.18,1.04,1.04,1.09h0l.26-.4h0c.31-3.06-.02-6.35,1.58-8.99,4.25-3.13,10.64-2.64,15.79-4.29,1.68.28,4.27-.26,5.32,1.66,1.32,3.51,1.64,7.52,2.79,11.09,4.13,13.99,7.58,28.08,13.99,41.04,1.42,2.4,22.23,37.16,24.04,40.25,5.32,6.85,11.81,15.06,18.42,21.5.65,1.23,2.44,2.33,3.54,3.37.66,1.29,2.58,1.77,2.95,3.02-.12-.05-.18-.15-.29-.15-.37.46.16.76.47,1.08-.47-.19-.3.57-.79.16h0l.45.75h0c-1.7-1.44-3.69-3.09-5.39-4.53-.44.36.32.53.34.86.78.5,1.35,1.35,2.08,2.02h0l-.27.29.42.36h0c.68-1.04.9.55,1.01.6h0l-.26.4h0c.27.59,1.28.31,1.33,1.13-3.08-1.58-5.13-4.87-8.16-6.56-.41-1.02-1.71-1.55-2.21-2.35h0l-.53-.24h0c-.98-.93-2.84-3.14-2.84-3.14-.12-.1-.32-.53-.71-.34-.1.23-.38.35-.24.68.27.59.56-.2.87.22-.29.73.79.78.9,1.49.38-.25.77.39,1.13.59.63.85.44,1.41,1.49,1.79h0l.43.36-.21.29.25.26h0c.6-.48.19.32.49.47h0l.87,1.05h0c-.05.06-.16.12-.1.23.61.62.76.29,1.44,1.02.05-.06-.98-.16-1.4-.46-.17.06-.15.29-.15.4-.34.02-1.39-1.13-1.76-1.6h0l-.49.42,1.78,1.88-1.18-.59h0s-1.02,1.06-.03,1.22h0l.6.46.1-.12h0c1.26,2.63,3.83,3.41,5.75,5.61-.38.35-.81-.94-1.15-.04h0l1.23,1.36-.46-.08.21.48h0c-3.62-2.76-6.58-6.11-10.08-8.76h0l-.27.29,2.38,2.34h0c-.12-.05-.18-.15-.29-.09-.33.19.02.38.15.49.24.15.37.42.6.4h0l.1-.17h0c.12.16.36.2.31.37h0l-.1.17.3.26.1-.17h0c.77.34.89,1.38,1.62,2.05.12.16-.69-.9-1.12-.48h0l1.35,1.35h0c-.17-.04-.25-.26-.41-.2.1.6.33.7.2,1.31-.44.25-.36,1.4-1.38,1.52-.7,1.53-2.04,2.89-2.33,4.51-.49.42-1,.45-1.48.09-13.69-13.35-23.75-28.13-34.37-43.43h0Z" fill="#e3e4e4" fill-rule="evenodd"/>
    <polygon points="195.95 84.95 200.03 84.95 200.03 89.68 195.95 89.68 195.95 84.95 195.95 84.95" fill="#008bd0" fill-rule="evenodd"/>
    <polygon points="230.01 84.95 234.08 84.95 234.08 89.68 230.01 89.68 230.01 84.95 230.01 84.95" fill="#008bd0" fill-rule="evenodd"/>
    <polygon points="3 32.77 10 32.77 10 89.68 3 89.68 3 32.77 3 32.77" fill="#009ee0" fill-rule="evenodd"/>
    <polygon points="21.9 32.77 57.37 32.77 57.37 39.75 28.83 39.75 28.83 57.02 53.92 57.02 53.92 63.8 28.83 63.8 28.83 89.68 21.9 89.68 21.9 32.77 21.9 32.77" fill="#009ee0" fill-rule="evenodd"/>
    <path d="M87.11,66.36l-7.76-25.14-8.25,25.14h16.01ZM75.73,32.77h7.83l18.55,56.91h-7.59l-5.19-17.04h-20.22l-5.53,17.04h-7.1l19.25-56.91h0Z" fill="#009ee0" fill-rule="evenodd"/>
    <polygon points="108.41 32.77 115.17 32.77 115.17 60.51 140.09 32.77 149.66 32.77 128.39 55.71 150.25 89.68 141.23 89.68 123.34 61.13 115.17 69.85 115.17 89.68 108.41 89.68 108.41 32.77 108.41 32.77" fill="#009ee0" fill-rule="evenodd"/>
    <path d="M185.91,67.09c1.39.77,2.45,1.77,3.18,3,.7,1.17,1.17,2.54,1.4,4.1.21,1.07.31,2.78.31,5.12h-15.3c.06,2.36.56,4.25,1.5,5.68.94,1.42,2.38,2.13,4.35,2.13,1.83,0,3.29-.67,4.39-2.02.62-.78,1.07-1.68,1.33-2.71h3.45c-.09.85-.4,1.81-.92,2.86-.51,1.04-1.08,1.9-1.72,2.56-1.07,1.16-2.38,1.94-3.96,2.34-.85.23-1.8.35-2.87.35-2.6,0-4.8-1.05-6.61-3.15-1.81-2.11-2.71-5.06-2.71-8.85s.91-6.76,2.73-9.09c1.82-2.33,4.2-3.49,7.13-3.49,1.48,0,2.92.39,4.31,1.17h0ZM187.2,76.21c-.14-1.69-.48-3.04-.99-4.06-.96-1.88-2.57-2.82-4.81-2.82-1.61,0-2.96.65-4.05,1.95-1.09,1.29-1.67,2.93-1.74,4.93h11.6Z" fill="#009ee0" fill-rule="evenodd"/>
    <polygon points="208.94 57.81 217.16 84.95 225.29 57.81 229.64 57.81 219.19 89.68 215.08 89.68 204.65 57.81 208.94 57.81 208.94 57.81" fill="#009ee0" fill-rule="evenodd"/>
    <polygon points="3.1 96.25 3.1 96.25 4.2 96.25 5.3 96.25 5.3 96.25 7.49 103.83 7.48 103.83 7.48 103.83 9.66 96.25 9.66 96.25 10.73 96.25 11.8 96.25 11.8 96.25 8.43 106.17 7.45 106.17 6.46 106.17 3.1 96.25" fill="#009ee0"/>
    <polygon points="13.5 106.17 13.5 106.17 13.5 96.25 13.5 96.25 20.81 96.25 20.81 96.25 20.81 97.12 20.81 98.01 20.81 98.01 15.57 98.01 15.57 98.01 15.57 100.12 15.57 100.12 20.43 100.12 20.43 100.97 20.43 101.82 20.43 101.82 15.57 101.82 15.57 101.82 15.57 104.41 15.57 104.41 21.04 104.41 21.04 104.41 21.04 105.29 21.04 106.17 21.04 106.17 13.5 106.17" fill="#009ee0"/>
    <path d="M23.11,106.17v-9.93h5c.94,0,1.71.25,2.29.76.58.5.87,1.17.87,2,0,.96-.32,1.65-.97,2.1-.17.12-.36.22-.58.3h0c.12.05.23.1.33.16.57.34.86.9.88,1.7l.05,1.63c0,.32.04.56.1.69.06.14.17.24.34.32v.26h-2.29c-.06-.1-.1-.33-.14-.67s-.06-.71-.07-1.1v-.92c-.02-.44-.16-.76-.41-.95-.26-.19-.67-.28-1.27-.28h-2.07v3.92h-2.07ZM25.18,100.58h2.4c.54,0,.94-.11,1.21-.33.27-.22.4-.55.4-.99s-.13-.76-.38-.98c-.25-.22-.64-.33-1.14-.33h-2.49v2.63h0Z" fill="#009ee0"/>
    <polygon points="33.48 106.17 33.48 106.17 33.48 96.25 33.48 96.25 40.79 96.25 40.79 96.25 40.79 97.12 40.79 98.01 40.79 98.01 35.55 98.01 35.55 98.01 35.55 100.12 35.55 100.12 40.41 100.12 40.41 100.97 40.41 101.82 40.41 101.82 35.55 101.82 35.55 101.82 35.55 104.41 35.55 104.41 41.02 104.41 41.02 104.41 41.02 105.29 41.02 106.17 41.02 106.17 33.48 106.17" fill="#009ee0"/>
    <polygon points="42.92 106.17 42.92 96.25 42.92 96.25 43.96 96.25 44.99 96.25 44.99 96.25 44.99 106.17 44.99 106.17 43.96 106.17 42.92 106.17" fill="#009ee0"/>
    <polygon points="49.15 106.17 49.15 106.17 48.19 106.17 47.22 106.17 47.22 106.17 47.22 96.25 47.22 96.25 48.3 96.25 49.39 96.25 49.39 96.25 53.38 103.22 53.38 103.22 53.38 103.22 53.38 96.25 53.38 96.25 54.34 96.25 55.31 96.25 55.31 96.25 55.31 106.17 54.28 106.17 53.25 106.17 49.15 99.02 49.15 99.02 49.15 99.02 49.15 106.17" fill="#009ee0"/>
    <polygon points="62.92 106.17 62.92 96.25 62.92 96.25 69.98 96.25 69.98 96.25 69.98 97.12 69.98 98.01 69.98 98.01 64.99 98.01 64.99 98.01 64.99 100.27 64.99 100.27 69.34 100.27 69.34 101.12 69.34 101.97 69.34 101.97 64.99 101.97 64.99 101.97 64.99 106.17 63.96 106.17 62.92 106.17" fill="#009ee0"/>
    <path d="M79.71,102.43c0,1.42-.31,2.44-.94,3.07-.63.63-1.65.94-3.07.94s-2.37-.33-3.02-.98c-.65-.65-.98-1.67-.99-3.03v-6.19h2.07v6.25c0,.71.16,1.25.48,1.6.32.36.81.53,1.46.53.69,0,1.19-.16,1.49-.49.3-.33.45-.88.45-1.65v-6.25h2.07v6.19h0ZM73.48,93.52h1.74v1.59h-1.74v-1.59h0ZM76.17,93.52h1.74v1.59h-1.74v-1.59h0Z" fill="#009ee0"/>
    <path d="M82.13,106.17v-9.93h5c.95,0,1.71.25,2.29.76.58.5.87,1.17.87,2,0,.96-.32,1.65-.97,2.1-.17.12-.36.22-.58.3h0c.12.05.23.1.33.16.57.34.86.9.88,1.7l.05,1.63c0,.32.04.56.1.69.06.14.17.24.34.32v.26h-2.29c-.06-.1-.1-.33-.14-.67s-.06-.71-.07-1.1v-.92c-.02-.44-.15-.76-.41-.95-.26-.19-.68-.28-1.27-.28h-2.07v3.92h-2.07ZM84.2,100.58h2.4c.54,0,.94-.11,1.21-.33.27-.22.4-.55.4-.99s-.13-.76-.38-.98c-.25-.22-.64-.33-1.14-.33h-2.49v2.63h0Z" fill="#009ee0"/>
    <polygon points="99.57 106.17 99.57 106.17 98.6 106.17 97.63 106.17 97.63 106.17 97.63 96.25 97.63 96.25 99.15 96.25 100.67 96.25 100.67 96.25 102.48 104.11 102.48 104.11 102.48 104.11 104.26 96.25 104.26 96.25 105.76 96.25 107.26 96.25 107.26 96.25 107.26 106.17 107.26 106.17 106.29 106.17 105.32 106.17 105.32 106.17 105.32 97.83 105.32 97.83 103.46 106.17 102.44 106.17 101.43 106.17 99.57 97.64 99.57 97.64 99.57 106.17" fill="#009ee0"/>
    <path d="M117.59,102.43c0,1.42-.31,2.44-.94,3.07-.63.63-1.65.94-3.07.94s-2.37-.33-3.02-.98c-.65-.65-.98-1.67-.99-3.03v-6.19h2.07v6.25c0,.71.16,1.25.48,1.6.32.36.81.53,1.45.53.69,0,1.19-.16,1.49-.49.3-.33.45-.88.45-1.65v-6.25h2.07v6.19h0Z" fill="#009ee0"/>
    <polygon points="120.01 106.17 120.01 106.17 120.01 96.25 120.01 96.25 121.04 96.25 122.08 96.25 122.08 96.25 122.08 104.41 122.08 104.41 127.02 104.41 127.02 104.41 127.02 105.29 127.02 106.17 127.02 106.17 120.01 106.17" fill="#009ee0"/>
    <polygon points="130.98 106.17 130.98 98.01 130.98 98.01 127.98 98.01 127.98 98.01 127.98 97.13 127.98 96.25 127.98 96.25 136.05 96.25 136.05 96.25 136.05 97.12 136.05 98.01 136.05 98.01 133.05 98.01 133.05 98.01 133.05 106.17 133.05 106.17 132.02 106.17 130.98 106.17" fill="#009ee0"/>
    <polygon points="137.5 106.17 137.5 96.25 137.5 96.25 138.54 96.25 139.58 96.25 139.58 96.25 139.58 106.17 139.58 106.17 138.54 106.17 137.5 106.17" fill="#009ee0"/>
    <polygon points="142.05 106.17 142.05 96.25 142.05 96.25 143.08 96.25 144.12 96.25 144.12 96.25 144.12 100.36 144.12 100.36 147.92 96.25 147.92 96.25 149.25 96.25 150.57 96.25 150.57 96.25 146.6 100.3 146.6 100.3 150.83 106.17 150.83 106.17 149.48 106.17 148.12 106.17 148.12 106.17 145.13 101.81 145.13 101.81 144.12 102.84 144.12 102.84 144.12 106.17 144.12 106.17 143.09 106.17 142.05 106.17" fill="#009ee0"/>
    <path d="M160.23,102.43c0,1.42-.31,2.44-.94,3.07-.63.63-1.65.94-3.07.94s-2.37-.33-3.02-.98c-.65-.65-.98-1.67-.99-3.03v-6.19h2.07v6.25c0,.71.16,1.25.48,1.6.32.36.81.53,1.46.53.69,0,1.19-.16,1.49-.49.3-.33.45-.88.45-1.65v-6.25h2.07v6.19h0Z" fill="#009ee0"/>
    <polygon points="162.64 106.17 162.64 106.17 162.64 96.25 162.64 96.25 163.68 96.25 164.71 96.25 164.71 96.25 164.71 104.41 164.71 104.41 169.65 104.41 169.65 104.41 169.65 105.29 169.65 106.17 169.65 106.17 162.64 106.17" fill="#009ee0"/>
    <polygon points="173.62 106.17 173.62 98.01 173.62 98.01 170.62 98.01 170.62 98.01 170.62 97.13 170.62 96.25 170.62 96.25 178.69 96.25 178.69 96.25 178.69 97.12 178.69 98.01 178.69 98.01 175.69 98.01 175.69 98.01 175.69 106.17 175.69 106.17 174.66 106.17 173.62 106.17" fill="#009ee0"/>
    <path d="M188.27,102.43c0,1.42-.31,2.44-.94,3.07-.63.63-1.65.94-3.07.94s-2.37-.33-3.02-.98c-.65-.65-.98-1.67-.99-3.03v-6.19h2.07v6.25c0,.71.16,1.25.48,1.6.32.36.81.53,1.46.53.69,0,1.19-.16,1.49-.49.3-.33.45-.88.45-1.65v-6.25h2.07v6.19h0Z" fill="#009ee0"/>
    <path d="M190.68,106.17v-9.93h5.01c.95,0,1.71.25,2.29.76.58.5.87,1.17.87,2,0,.96-.32,1.65-.96,2.1-.17.12-.37.22-.58.3h0c.12.05.23.1.33.16.57.34.86.9.88,1.7l.05,1.63c0,.32.04.56.1.69.06.14.17.24.34.32v.26h-2.29c-.05-.1-.1-.33-.14-.67s-.06-.71-.07-1.1v-.92c-.02-.44-.16-.76-.41-.95-.26-.19-.68-.28-1.27-.28h-2.07v3.92h-2.07ZM192.75,100.58h2.4c.54,0,.94-.11,1.21-.33.27-.22.4-.55.4-.99s-.13-.76-.38-.98c-.25-.22-.63-.33-1.14-.33h-2.49v2.63h0Z" fill="#009ee0"/>
    <polygon points="201.05 106.17 201.05 106.17 201.05 96.25 201.05 96.25 208.36 96.25 208.36 96.25 208.36 97.12 208.36 98.01 208.36 98.01 203.12 98.01 203.12 98.01 203.12 100.12 203.12 100.12 207.98 100.12 207.98 100.97 207.98 101.82 207.98 101.82 203.12 101.82 203.12 101.82 203.12 104.41 203.12 104.41 208.59 104.41 208.59 104.41 208.59 105.29 208.59 106.17 208.59 106.17 201.05 106.17" fill="#009ee0"/>
    <polygon points="210.66 106.17 210.66 106.17 210.66 96.25 210.66 96.25 211.7 96.25 212.73 96.25 212.73 96.25 212.73 104.41 212.73 104.41 217.67 104.41 217.67 104.41 217.67 105.29 217.67 106.17 217.67 106.17 210.66 106.17" fill="#009ee0"/>
    <polygon points="219.49 106.17 219.49 106.17 219.49 96.25 219.49 96.25 220.53 96.25 221.57 96.25 221.57 96.25 221.57 104.41 221.57 104.41 226.5 104.41 226.5 104.41 226.5 105.29 226.5 106.17 226.5 106.17 219.49 106.17" fill="#009ee0"/>
    <polygon points="228.33 106.17 228.33 106.17 228.33 96.25 228.33 96.25 235.63 96.25 235.63 96.25 235.63 97.12 235.63 98.01 235.63 98.01 230.4 98.01 230.4 98.01 230.4 100.12 230.4 100.12 235.26 100.12 235.26 100.97 235.26 101.82 235.26 101.82 230.4 101.82 230.4 101.82 230.4 104.41 230.4 104.41 235.87 104.41 235.87 104.41 235.87 105.29 235.87 106.17 235.87 106.17 228.33 106.17" fill="#009ee0"/>
    <polygon points="4.04 122.63 4.04 112.7 4.04 112.7 5.07 112.7 6.11 112.7 6.11 112.7 6.11 116.81 6.11 116.81 9.92 112.7 9.92 112.7 11.24 112.7 12.56 112.7 12.56 112.7 8.6 116.75 8.6 116.75 12.82 122.63 12.82 122.63 11.47 122.63 10.11 122.63 10.11 122.63 7.12 118.26 7.12 118.26 6.11 119.3 6.11 119.3 6.11 122.63 6.11 122.63 5.08 122.63 4.04 122.63" fill="#009ee0"/>
    <polygon points="14.86 122.63 14.86 112.7 14.86 112.7 15.9 112.7 16.93 112.7 16.93 112.7 16.93 122.63 16.93 122.63 15.9 122.63 14.86 122.63" fill="#009ee0"/>
    <polygon points="21.86 122.63 21.86 122.63 20.9 122.63 19.92 122.63 19.92 122.63 19.92 112.7 19.92 112.7 21.01 112.7 22.1 112.7 22.1 112.7 26.08 119.67 26.08 119.67 26.08 119.67 26.08 112.7 26.08 112.7 27.05 112.7 28.02 112.7 28.02 112.7 28.02 122.63 26.99 122.63 25.95 122.63 21.86 115.47 21.86 115.47 21.86 115.47 21.86 122.63" fill="#009ee0"/>
    <path d="M31.17,122.63v-9.93h4.25c1.36,0,2.4.4,3.11,1.2.71.8,1.06,1.97,1.06,3.52,0,1.7-.37,2.99-1.1,3.88s-1.81,1.33-3.24,1.33h-4.08ZM33.24,120.92h1.75c.84,0,1.47-.29,1.9-.86.42-.57.63-1.42.63-2.56,0-1.03-.2-1.81-.59-2.32-.39-.52-.98-.78-1.77-.78h-1.92v6.51h0Z" fill="#009ee0"/>
    <polygon points="42.31 122.63 42.31 122.63 42.31 112.7 42.31 112.7 49.62 112.7 49.62 112.7 49.62 113.58 49.62 114.47 49.62 114.47 44.38 114.47 44.38 114.47 44.38 116.57 44.38 116.57 49.24 116.57 49.24 117.42 49.24 118.28 49.24 118.28 44.38 118.28 44.38 118.28 44.38 120.87 44.38 120.87 49.85 120.87 49.85 120.87 49.85 121.75 49.85 122.63 49.85 122.63 42.31 122.63" fill="#009ee0"/>
    <path d="M52.69,122.63v-9.93h5.01c.94,0,1.71.25,2.29.76.58.51.87,1.17.87,2,0,.96-.32,1.65-.97,2.1-.17.12-.36.22-.58.3h0c.12.05.23.1.33.16.57.34.86.91.88,1.7l.05,1.63c0,.32.04.56.1.69.06.14.17.25.34.33v.26h-2.29c-.06-.1-.1-.32-.14-.67-.04-.34-.06-.71-.07-1.1v-.92c-.02-.44-.15-.76-.41-.95-.26-.19-.67-.28-1.26-.28h-2.07v3.92h-2.07ZM54.76,117.04h2.4c.54,0,.94-.11,1.21-.33.27-.22.4-.55.4-.99s-.13-.77-.38-.98c-.25-.22-.64-.33-1.14-.33h-2.49v2.63h0Z" fill="#009ee0"/>
    <polygon points="63.14 117.84 67.01 117.84 67.01 119.67 63.14 119.67 63.14 117.84" fill="#009ee0"/>
    <path d="M84.07,118.89c0,1.42-.31,2.44-.94,3.07-.63.63-1.65.94-3.07.94s-2.37-.33-3.02-.98-.98-1.66-.99-3.03v-6.19h2.07v6.25c0,.71.16,1.25.48,1.6.32.35.81.53,1.46.53.69,0,1.19-.16,1.49-.49.3-.33.45-.88.45-1.65v-6.25h2.07v6.19h0Z" fill="#009ee0"/>
    <polygon points="89.1 122.63 89.1 122.63 88.13 122.63 87.16 122.63 87.16 122.63 87.16 112.7 87.16 112.7 88.25 112.7 89.33 112.7 89.33 112.7 93.32 119.67 93.32 119.67 93.32 119.67 93.32 112.7 93.32 112.7 94.28 112.7 95.25 112.7 95.25 112.7 95.25 122.63 94.22 122.63 93.19 122.63 89.1 115.47 89.1 115.47 89.1 115.47 89.1 122.63" fill="#009ee0"/>
    <path d="M98.4,122.63v-9.93h4.25c1.36,0,2.4.4,3.11,1.2.71.8,1.06,1.97,1.06,3.52,0,1.7-.37,2.99-1.1,3.88s-1.81,1.33-3.24,1.33h-4.08ZM100.47,120.92h1.75c.84,0,1.47-.29,1.89-.86.42-.57.63-1.42.63-2.56,0-1.03-.2-1.81-.59-2.32-.39-.52-.98-.78-1.77-.78h-1.92v6.51h0Z" fill="#009ee0"/>
    <path d="M119.64,112.7h2.07v7.14c0,1.01-.27,1.77-.81,2.29-.54.51-1.33.77-2.39.77-1.12,0-1.94-.28-2.47-.85-.52-.57-.76-1.44-.73-2.63v-.6h1.97v.6c-.02.6.07,1.05.27,1.34.2.29.51.44.94.44s.7-.11.88-.32c.18-.21.27-.56.27-1.04h0v-7.14h0Z" fill="#009ee0"/>
    <path d="M132.87,118.89c0,1.42-.31,2.44-.94,3.07-.63.63-1.65.94-3.07.94s-2.37-.33-3.02-.98-.98-1.66-.99-3.03v-6.19h2.07v6.25c0,.71.16,1.25.48,1.6.32.35.81.53,1.45.53.69,0,1.19-.16,1.49-.49.3-.33.45-.88.45-1.65v-6.25h2.07v6.19h0Z" fill="#009ee0"/>
    <path d="M140.33,122.9c-1.45,0-2.59-.47-3.44-1.4-.85-.93-1.27-2.19-1.27-3.78s.44-2.91,1.32-3.86c.88-.95,2.08-1.43,3.58-1.43,1.21,0,2.2.3,2.98.91.78.6,1.24,1.42,1.37,2.44h-2.08c-.05-.43-.3-.81-.73-1.14-.43-.32-.91-.49-1.43-.49-.9,0-1.6.31-2.11.94-.51.62-.77,1.49-.77,2.6s.24,1.98.74,2.57c.49.59,1.2.88,2.14.88h0c.8,0,1.43-.31,1.88-.92.25-.35.43-.75.55-1.22v-.02h-2.34v-1.71h4.16v5.35h-1.38l-.2-1.28h0l-.12.16c-.7.93-1.64,1.4-2.84,1.4h0Z" fill="#009ee0"/>
    <polygon points="147.97 122.63 147.97 122.63 147.97 112.7 147.97 112.7 155.27 112.7 155.27 112.7 155.27 113.58 155.27 114.47 155.27 114.47 150.04 114.47 150.04 114.47 150.04 116.57 150.04 116.57 154.9 116.57 154.9 117.42 154.9 118.28 154.9 118.28 150.04 118.28 150.04 118.28 150.04 120.87 150.04 120.87 155.51 120.87 155.51 120.87 155.51 121.75 155.51 122.63 155.51 122.63 147.97 122.63" fill="#009ee0"/>
    <polygon points="160.18 122.63 160.18 122.63 159.22 122.63 158.24 122.63 158.24 122.63 158.24 112.7 158.24 112.7 159.33 112.7 160.42 112.7 160.42 112.7 164.4 119.67 164.4 119.67 164.4 119.67 164.4 112.7 164.4 112.7 165.37 112.7 166.34 112.7 166.34 112.7 166.34 122.63 165.31 122.63 164.27 122.63 160.18 115.47 160.18 115.47 160.18 115.47 160.18 122.63" fill="#009ee0"/>
    <path d="M169.49,122.63v-9.93h4.25c1.36,0,2.4.4,3.11,1.2.71.8,1.06,1.97,1.06,3.52,0,1.7-.37,2.99-1.1,3.88-.73.89-1.81,1.33-3.24,1.33h-4.08ZM171.56,120.92h1.75c.84,0,1.47-.29,1.9-.86.42-.57.63-1.42.63-2.56,0-1.03-.2-1.81-.59-2.32-.39-.52-.98-.78-1.77-.78h-1.92v6.51h0Z" fill="#009ee0"/>
    <polygon points="180.55 122.63 180.55 112.7 180.55 112.7 181.59 112.7 182.62 112.7 182.62 112.7 182.62 116.43 182.62 116.43 186.51 116.43 186.51 116.43 186.51 112.7 186.51 112.7 187.54 112.7 188.58 112.7 188.58 112.7 188.58 122.63 188.58 122.63 187.55 122.63 186.51 122.63 186.51 122.63 186.51 118.13 186.51 118.13 182.62 118.13 182.62 118.13 182.62 122.63 182.62 122.63 181.59 122.63 180.55 122.63" fill="#009ee0"/>
    <polygon points="191.6 122.63 191.6 112.7 191.6 112.7 192.63 112.7 193.67 112.7 193.67 112.7 193.67 122.63 193.67 122.63 192.64 122.63 191.6 122.63" fill="#009ee0"/>
    <polygon points="196.76 122.63 196.76 122.63 196.76 112.7 196.76 112.7 197.8 112.7 198.84 112.7 198.84 112.7 198.84 120.87 198.84 120.87 203.77 120.87 203.77 120.87 203.77 121.75 203.77 122.63 203.77 122.63 196.76 122.63" fill="#009ee0"/>
    <polygon points="206.37 122.63 206.37 112.7 206.37 112.7 213.43 112.7 213.43 112.7 213.43 113.58 213.43 114.47 213.43 114.47 208.44 114.47 208.44 114.47 208.44 116.72 208.44 116.72 212.79 116.72 212.79 117.57 212.79 118.43 212.79 118.43 208.44 118.43 208.44 118.43 208.44 122.63 207.4 122.63 206.37 122.63" fill="#009ee0"/>
    <polygon points="215.96 122.63 215.96 122.63 215.96 112.7 215.96 112.7 223.27 112.7 223.27 112.7 223.27 113.58 223.27 114.47 223.27 114.47 218.04 114.47 218.04 114.47 218.04 116.57 218.04 116.57 222.9 116.57 222.9 117.42 222.9 118.28 222.9 118.28 218.04 118.28 218.04 118.28 218.04 120.87 218.04 120.87 223.5 120.87 223.5 120.87 223.5 121.75 223.5 122.63 223.5 122.63 215.96 122.63" fill="#009ee0"/>
    <polygon points="232.19 117.84 236.06 117.84 236.06 119.67 232.19 119.67 232.19 117.84" fill="#009ee0"/>
    <polygon points="5.73 139.09 5.73 139.09 4.76 139.09 3.79 139.09 3.79 139.09 3.79 129.16 3.79 129.16 5.31 129.16 6.83 129.16 6.83 129.16 8.64 137.02 8.64 137.02 8.64 137.02 10.42 129.16 10.42 129.16 11.92 129.16 13.42 129.16 13.42 129.16 13.42 139.09 13.42 139.09 12.45 139.09 11.48 139.09 11.48 139.09 11.48 130.74 11.48 130.74 9.62 139.09 8.6 139.09 7.59 139.09 5.73 130.55 5.73 130.55 5.73 139.09" fill="#009ee0"/>
    <polygon points="16.01 139.09 16.01 129.16 16.01 129.16 17.04 129.16 18.08 129.16 18.08 129.16 18.08 139.09 18.08 139.09 17.05 139.09 16.01 139.09" fill="#009ee0"/>
    <path d="M25.06,139.35c-1.44,0-2.59-.46-3.44-1.4-.85-.93-1.27-2.19-1.27-3.78s.44-2.91,1.32-3.86c.88-.95,2.08-1.43,3.58-1.43,1.21,0,2.2.3,2.98.91.78.6,1.24,1.42,1.37,2.44h-2.08c-.05-.43-.3-.81-.73-1.14-.43-.32-.91-.49-1.43-.49-.9,0-1.61.31-2.11.94-.51.62-.76,1.49-.76,2.6s.24,1.98.74,2.57c.49.59,1.2.88,2.14.88h0c.8,0,1.43-.31,1.88-.92.25-.35.43-.75.55-1.22v-.02h-2.33v-1.71h4.16v5.35h-1.38l-.2-1.29h0l-.12.16c-.7.93-1.64,1.4-2.84,1.4h0Z" fill="#009ee0"/>
    <path d="M32.32,139.09v-9.93h5.01c.94,0,1.71.25,2.29.76.58.5.87,1.17.87,2,0,.96-.32,1.65-.97,2.1-.17.12-.36.22-.58.3h0c.12.05.23.1.33.16.57.34.86.9.88,1.7l.05,1.63c0,.32.04.55.1.69.06.14.17.24.34.32v.26h-2.29c-.06-.1-.1-.33-.14-.67s-.06-.71-.07-1.1v-.92c-.02-.45-.15-.76-.41-.95-.26-.19-.67-.28-1.27-.28h-2.07v3.92h-2.07ZM34.39,133.49h2.4c.54,0,.94-.11,1.21-.33.27-.22.4-.55.4-.99s-.13-.77-.38-.98c-.25-.22-.64-.33-1.14-.33h-2.49v2.63h0Z" fill="#009ee0"/>
    <path d="M42.3,139.09l3.51-9.93h2.4l3.52,9.93h-2.2l-.67-2.02h-3.77l-.65,2.02h-2.14ZM46.98,131.37l-1.32,3.99h2.64l-1.32-3.99h0Z" fill="#009ee0"/>
    <polygon points="55.97 139.09 55.97 130.92 55.97 130.92 52.97 130.92 52.97 130.92 52.97 130.04 52.97 129.16 52.97 129.16 61.04 129.16 61.04 129.16 61.04 130.04 61.04 130.92 61.04 130.92 58.04 130.92 58.04 130.92 58.04 139.09 58.04 139.09 57.01 139.09 55.97 139.09" fill="#009ee0"/>
    <polygon points="62.88 139.09 62.88 129.16 62.88 129.16 63.91 129.16 64.95 129.16 64.95 129.16 64.95 139.09 64.95 139.09 63.92 139.09 62.88 139.09" fill="#009ee0"/>
    <path d="M71.98,139.35c-1.46,0-2.62-.46-3.48-1.4-.86-.93-1.29-2.19-1.29-3.78s.43-2.91,1.29-3.86c.86-.95,2.02-1.43,3.48-1.43s2.63.48,3.49,1.43c.86.95,1.29,2.24,1.29,3.86s-.43,2.85-1.29,3.78c-.86.93-2.02,1.4-3.49,1.4h0ZM71.98,137.59c.85,0,1.51-.3,1.98-.91s.72-1.45.72-2.52-.24-1.96-.72-2.58-1.14-.93-1.98-.93-1.5.31-1.98.93c-.48.62-.72,1.48-.72,2.58s.24,1.92.71,2.52c.48.61,1.14.91,1.99.91h0Z" fill="#009ee0"/>
    <polygon points="81.02 139.09 81.02 139.09 80.06 139.09 79.08 139.09 79.08 139.09 79.08 129.16 79.08 129.16 80.17 129.16 81.26 129.16 81.26 129.16 85.24 136.13 85.24 136.13 85.24 136.13 85.24 129.16 85.24 129.16 86.21 129.16 87.18 129.16 87.18 129.16 87.18 139.09 86.15 139.09 85.11 139.09 81.02 131.93 81.02 131.93 81.02 131.93 81.02 139.09" fill="#009ee0"/>
    <path d="M95.32,132.14h0c-.04-.47-.24-.85-.62-1.12s-.87-.41-1.48-.41c-.53,0-.94.12-1.24.35-.3.23-.44.55-.44.97,0,.3.15.53.47.69.31.16.96.35,1.95.57,1.44.33,2.41.7,2.9,1.12.49.42.73,1.09.73,2.02s-.37,1.67-1.1,2.22c-.74.55-1.73.82-2.98.82s-2.24-.29-2.94-.87c-.71-.58-1.09-1.41-1.13-2.48h2c.02.53.21.93.57,1.21.36.28.86.43,1.5.43s1.18-.11,1.55-.32c.37-.21.56-.51.56-.89s-.13-.65-.4-.82c-.26-.18-.82-.36-1.67-.55-1.57-.35-2.63-.73-3.16-1.14-.53-.41-.79-1.04-.79-1.9,0-.96.35-1.73,1.05-2.29.7-.56,1.64-.85,2.83-.85,1.11,0,2.02.29,2.71.88.7.58,1.08,1.37,1.16,2.37h-2.02Z" fill="#009ee0"/>
    <path d="M99.16,139.09l3.51-9.93h2.4l3.52,9.93h-2.2l-.67-2.02h-3.77l-.65,2.02h-2.14ZM103.84,131.37l-1.32,3.99h2.64l-1.32-3.99h0Z" fill="#009ee0"/>
    <path d="M110.69,139.09v-9.93h5c.94,0,1.71.25,2.29.76.58.5.87,1.17.87,2,0,.96-.32,1.65-.97,2.1-.17.12-.36.22-.58.3h0c.12.05.23.1.33.16.57.34.86.9.88,1.7l.05,1.63c0,.32.04.55.1.69.06.14.17.24.34.32v.26h-2.29c-.06-.1-.1-.33-.14-.67s-.06-.71-.07-1.1v-.92c-.02-.45-.15-.76-.41-.95-.25-.19-.68-.28-1.26-.28h-2.07v3.92h-2.07ZM112.76,133.49h2.4c.54,0,.94-.11,1.21-.33.27-.22.4-.55.4-.99s-.13-.77-.38-.98c-.25-.22-.64-.33-1.14-.33h-2.49v2.63h0Z" fill="#009ee0"/>
    <path d="M121.44,139.09v-9.93h4.81c.96,0,1.71.22,2.25.67.54.44.81,1.06.81,1.85s-.3,1.45-.91,1.88c-.1.07-.21.14-.33.2h0c.24.09.44.2.62.32.64.44.95,1.07.95,1.91,0,1.01-.31,1.79-.94,2.31-.63.53-1.54.79-2.75.79h-4.51ZM123.43,130.87v2.18h2.37c.52,0,.9-.1,1.16-.29.26-.19.39-.49.39-.88,0-.34-.14-.59-.4-.76s-.68-.25-1.22-.25h-2.29ZM123.43,134.72v2.65h2.52c.54,0,.95-.12,1.22-.35.27-.23.4-.59.4-1.06,0-.41-.14-.72-.41-.93-.28-.21-.69-.31-1.25-.31h-2.48Z" fill="#009ee0"/>
    <polygon points="132.2 139.09 132.2 139.09 132.2 129.16 132.2 129.16 139.51 129.16 139.51 129.16 139.51 130.04 139.51 130.92 139.51 130.92 134.27 130.92 134.27 130.92 134.27 133.03 134.27 133.03 139.13 133.03 139.13 133.88 139.13 134.74 139.13 134.74 134.27 134.74 134.27 134.74 134.27 137.32 134.27 137.32 139.74 137.32 139.74 137.32 139.74 138.2 139.74 139.09 139.74 139.09 132.2 139.09" fill="#009ee0"/>
    <polygon points="142.03 139.09 142.03 129.16 142.03 129.16 143.06 129.16 144.1 129.16 144.1 129.16 144.1 139.09 144.1 139.09 143.07 139.09 142.03 139.09" fill="#009ee0"/>
    <polygon points="148.95 139.09 148.95 130.92 148.95 130.92 145.95 130.92 145.95 130.92 145.95 130.04 145.95 129.16 145.95 129.16 154.02 129.16 154.02 129.16 154.02 130.04 154.02 130.92 154.02 130.92 151.02 130.92 151.02 130.92 151.02 139.09 151.02 139.09 149.99 139.09 148.95 139.09" fill="#009ee0"/>
  </g>
  <text transform="translate(209.95 138.61)" fill="#e3e4e4" font-family="MyriadPro-Bold, &apos;Myriad Pro&apos;" font-size="157.25" font-weight="700"><tspan x="0" y="0">TICKET</tspan></text>
</svg>
