<?xml version="1.0" encoding="utf-8"?>
<!-- Generator: Adobe Illustrator 16.0.0, SVG Export Plug-In . SVG Version: 6.00 Build 0)  -->
<!DOCTYPE svg PUBLIC "-//W3C//DTD SVG 1.1//EN" "http://www.w3.org/Graphics/SVG/1.1/DTD/svg11.dtd">
<svg version="1.1" id="Ebene_1" xmlns="http://www.w3.org/2000/svg" xmlns:xlink="http://www.w3.org/1999/xlink" x="0px" y="0px"
	 width="566.93px" height="566.93px" viewBox="0 0 566.93 566.93" enable-background="new 0 0 566.93 566.93" xml:space="preserve">
<g>
	<path fill="#E3E4E4" d="M139.155,287.7c-1.83-5.626-11.204-16.886-16.621-20.779c0.588,6.102,2.579,11.809,3.627,17.846
		c0.371,1.402-1.12,1.895-1.806,2.652c-4.973,2.885-9.946,5.819-15.032,8.406c-1.016,0.637-2.66,0.879-3.749,0.54
		c-9.842-12.123-18.627-25.06-24.632-39.068c-0.202,0.411,2.063,15.895,2.063,15.895c0.137,1.419,0.911,10.221,0.911,10.221
		c-0.024,4.538-0.048,9.205-0.056,14.05c-2.926,2.499-7.19,2.901-9.576,5.859c-1.749,0.017-3.353-1.177-4.884-2.055
		c-6.134-4.208-17.967-16.468-18.539-17.459c-3.256-3.272-11.688-14.235-12.905-15.936c1.266,7.979,3.885,16.137,5.844,24.205
		c0.105,2.306,3.345,4.514,0.774,6.763c-0.556,0.613-1.378,0.75-2.152,0.887c0.604,2.813,1.596,5.997,2.886,8.811
		c0,1.378-2.426,2.329-0.854,3.788c1.822,5.223,4.345,10.592,6.497,15.936c-0.024,0.314-0.798,1.12,0.081,1.152l0,0l-0.298,0.331
		l0,0c0,0,0.564,0.854,0.467,0.725c-0.161,0.323,0.177,0.613,0.492,0.5l0,0l-0.314,0.153l0.588,0.5l0,0
		c-1.556,0.226-1.628-2.257-2.442-3.41c0.782-0.669-0.661-0.935-0.798-1.556c-0.137-0.612-0.258-1.096-0.653-1.563
		c-0.169,0.274-0.742-0.04-0.758,0.403c1.113,0.112,0.669,1.781,1.5,2.442c0.508,0.766,0.169,1.902,1.185,2.507
		c0.137,0.66-0.113,1.12,0.645,1.427c0.234,0.789,0.516,2.192,0.476,2.329c0.024,0.395,0.234,0.072-0.242-0.21
		c0.274-1.395-1.886-1.975-1.668-3.635c-0.604-0.766-0.347-1.757-1.362-2.45c-1.169-0.282,0.54-1.637-1.048-1.846
		c0.186-0.726-0.613-0.943-0.282-1.491c-0.153-0.17-0.371-0.064-0.556-0.057c1.645,5.328,4.336,10.462,6.658,15.613
		c1.394,2.941,2.926,5.867,4.9,8.552c-0.153,1.169-1.62,1.258-2.305,2.056c-0.814,0.895-2.241,0.983-2.765,2.087
		c-0.298,0.371-0.766,0.936-1.362,1.064c-5.167-7.649-8.399-16.169-12.139-24.487l0,0l-0.298,0.37l0,0
		c-0.347-0.338,0.596-0.749-0.073-1.063c-0.137,0.048-0.556-1.395-0.556-1.395l0,0l-0.081,0.137l0,0
		c0.282-0.597-0.556-1.475-0.556-1.475s-0.274-0.653-0.363-0.604l0,0l-0.169-1.193l0,0c-0.193-0.169-0.233-0.741-0.395-1.128
		c-0.581-1.08-1.362-3.208-1.233-3.354c0.097-0.589-0.354-0.508-0.354-0.508c-0.548-0.637,0.29-1.217-0.661-1.652
		c0,0,0-0.669-0.387-0.959c0.298-0.371-0.105-0.839-0.314-1.273l0,0l-0.339-0.291l0,0c0.411-0.072,0.137-0.717,0.016-1.16
		c-0.467,0.564-0.403-0.468-0.604-0.718c-0.048-0.04-0.637,0.129-0.637,0.129c-0.137,0.057-0.306,0.193-0.347,0.379l0,0
		l-0.346-0.338l0,0c-0.258,0.282,0.378,0.87,0.378,0.87l0,0l-0.298,0.331l0.556,0.056l0,0c0,0,0.274,0.653,0.379,0.822
		c0.056,0.178-0.049,0.669-0.049,0.669c-0.113,0.411,1.153,0.686,0.395,1.04c0.113,0.258,0.137,0.032-0.097-0.129
		c-0.242,0.548,0.048,1.378,0.339,1.58c0.081,0.483,0.895,0.298,0.87-0.146c0,0,0,1.516,0.202,1.677l0,0l0.218-0.193l0.347,0.379
		l0,0c-0.121,0.322-0.911,0.813-0.911,0.902c0.54,0.5,0.903-0.322,1.225,0.371l0,0l0.266,0.516l0,0
		c-0.395,0.29-1.072-0.153-1.064,0.597c0.572,0.233-0.064,0.362,0.452,0.597c0,0,0.193,0.121-0.153,0.451
		c0.282,0.112,0.266,0.516,0.597,0.718l0,0l0.056-0.54l0.468,0.056l0,0c-0.266,0.153-0.291,1.218-0.371,1.314
		c-0.081,0.186,0.113,0.306,0.258,0.427c-0.524,0.436,0.621,0.363-0.088,0.718c0.814-0.186,0.274,1.321,1.104,1.354
		c-0.645,0.661,0.032,1.201,0.121,1.773l0,0l0.581,0.411l0,0c-0.274,0.064-0.54,0.17-0.871,0.146
		c-0.129,0.145,0.024,0.395,0.266,0.516c0,0,0.725,0.532,0.612,0.943c-0.137,0-0.282-0.024-0.363,0.112
		c0.323,0.024,0.443,0.419,0.298,0.959c1.032-0.467,0.758,0.936,1.112,1.443c-0.354,0.959,0.83,1.419,0.814,2.49
		c-0.064,0.363-0.378-0.201-0.54,0.258c0.54,0.46,0.371,0.686-0.016,1.161c-0.346-0.379,0.307-0.999-0.282-0.83
		c-0.089,0.097,0.153-0.5-0.282-0.741c0.395-0.291-0.395-0.331-0.274-0.605c0.137,0.032,0.177-0.056,0.226-0.104
		c-0.29-0.25-0.347-0.379-0.468-0.726c0.097,0.041,0.137-0.048,0.178-0.145c0.113-0.411-0.339-0.202-0.436-0.282
		c-0.186-0.741-0.701-1.467-0.701-2.185c-0.371-0.686-0.621-1.692-1.04-2.515c-0.492-1.838-1.338-4.191-1.95-5.755
		c-0.959-2.652-1.645-5.328-2.837-8.061c-0.113-1.016-0.266-1.942-0.75-2.935c-0.524-0.991-1.209-2.909-1.209-2.909
		c0.395-1.008-1.58-6.448-2.031-7.037c0.113-1.12-0.774-3.377-0.774-3.377c-0.307-0.428-3.385-12.163-3.813-15.782
		c-0.854-1.773-3.765-20.595-3.765-20.595c-0.822-10.277-2.394-22.859-2.386-33.895c0.089-0.717,1.523,0,1.177-1.056
		c0.032-2.313-0.983-5.054,1.08-6.698c2.096-0.395,4.272-0.927,6.118-1.62c-0.186-0.701-0.597-1.298-0.508-2.104
		c2.249-1.563,4.755-2.7,7.166-3.869c0.306,1.097,0.604,2.145,0.903,3.24c4.788,14.477,20.063,41.173,20.063,41.173
		s6.037,8.302,6.23,8.472c1.612,2.039,5.546,7.133,5.546,7.133l0,0l-0.097-0.08l0,0c0.033,0.532,3.047,3.547,3.273,4.159
		c0.29,0.201,1,1.137,1.394,1.516c0,0-4.78-34.548-8.447-50.967l0,0l-0.483-0.37l0,0c0.661-1.201,1.427-2.088,2.579-2.829
		c2.716-0.081,5.425-0.911,8.037-1.161c0.226-2.861,3.917-2.152,5.876-3.208c0.75-0.492,1.708-0.637,2.563-0.919
		c1.137,0.419,1.5,1.733,2.16,2.628c10.825,16.556,15.71,35.925,28.139,51.667c-1.266-5.844-3.055-12.002-4.336-18.111
		c-1.282-6.062-3.676-19.313-3.676-19.313c-0.483-5.844-0.677-12.243-1.023-18.184c0.33-0.597,1-0.282,1.531-0.54l0,0l5.529-1.411
		l0.242,0.21l0,0c0.04-0.049,0.129-0.146,0.121-0.226h0.089c0.314,0.556-0.234,1.967-0.186,2.055l0,0l0.097,0.081h-0.088
		c-0.25,0.468-0.169,4.425,0.097,4.941c0.508,0.056,0.145,0.838,0.838,0.878l0,0l0.209-0.322l0,0
		c0.25-2.467-0.016-5.118,1.273-7.246c3.426-2.523,8.576-2.128,12.728-3.458c1.354,0.226,3.442-0.21,4.288,1.338
		c1.064,2.829,1.322,6.062,2.249,8.939c3.329,11.276,6.11,22.634,11.277,33.08c1.145,1.934,17.918,29.952,19.377,32.442
		c4.289,5.521,9.52,12.14,14.848,17.33c0.524,0.991,1.967,1.878,2.853,2.717c0.532,1.04,2.08,1.427,2.378,2.434
		c-0.097-0.04-0.145-0.12-0.234-0.12c-0.298,0.37,0.129,0.612,0.379,0.87c-0.379-0.153-0.242,0.46-0.637,0.129l0,0l0.363,0.604l0,0
		c-1.37-1.16-2.974-2.49-4.345-3.651c-0.354,0.29,0.258,0.428,0.274,0.693c0.628,0.403,1.088,1.088,1.676,1.628l0,0l-0.217,0.234
		l0.338,0.29l0,0c0.548-0.839,0.726,0.443,0.814,0.483l0,0l-0.209,0.322l0,0c0.218,0.476,1.032,0.25,1.072,0.911
		c-2.482-1.273-4.135-3.926-6.577-5.288c-0.331-0.822-1.378-1.249-1.781-1.894l0,0l-0.427-0.193l0,0
		c-0.79-0.75-2.289-2.531-2.289-2.531c-0.097-0.081-0.258-0.428-0.572-0.274c-0.081,0.186-0.306,0.282-0.193,0.548
		c0.217,0.476,0.451-0.161,0.701,0.178c-0.234,0.589,0.637,0.629,0.725,1.201c0.307-0.201,0.621,0.314,0.911,0.476
		c0.508,0.685,0.354,1.137,1.201,1.442l0,0l0.346,0.29l-0.169,0.234l0.201,0.209l0,0c0.484-0.387,0.153,0.259,0.395,0.379l0,0
		l0.701,0.847l0,0c-0.04,0.049-0.129,0.097-0.081,0.186c0.492,0.5,0.613,0.233,1.161,0.822c0.041-0.049-0.79-0.129-1.128-0.371
		c-0.137,0.049-0.121,0.233-0.121,0.322c-0.274,0.017-1.121-0.91-1.419-1.289l0,0l-0.395,0.338l1.435,1.516l-0.951-0.476l0,0
		c0,0-0.822,0.854-0.024,0.983l0,0l0.484,0.371l0.081-0.097l0,0c1.016,2.119,3.087,2.748,4.635,4.521
		c-0.306,0.282-0.653-0.758-0.927-0.032l0,0l0.991,1.097l-0.371-0.064l0.169,0.387l0,0c-2.917-2.225-5.304-4.925-8.125-7.062l0,0
		l-0.218,0.234l1.918,1.886l0,0c-0.097-0.04-0.145-0.121-0.234-0.072c-0.266,0.153,0.016,0.306,0.121,0.395
		c0.193,0.121,0.298,0.339,0.483,0.322l0,0l0.081-0.137l0,0c0.097,0.129,0.29,0.161,0.25,0.298l0,0l-0.081,0.138l0.242,0.209
		l0.081-0.137l0,0c0.621,0.274,0.717,1.112,1.306,1.652c0.097,0.129-0.556-0.726-0.902-0.387l0,0l1.088,1.088l0,0
		c-0.137-0.032-0.202-0.209-0.331-0.161c0.081,0.483,0.266,0.564,0.161,1.056c-0.354,0.202-0.29,1.129-1.112,1.226
		c-0.564,1.233-1.644,2.329-1.878,3.635c-0.395,0.339-0.806,0.363-1.193,0.073c-11.035-10.761-19.144-22.674-27.704-35.007l0,0
		L139.155,287.7z"/>
	<polygon fill="#008BD0" points="157.944,277.682 161.232,277.682 161.232,281.494 157.944,281.494 157.944,277.682 	"/>
	<polygon fill="#008BD0" points="185.398,277.682 188.678,277.682 188.678,281.494 185.398,281.494 185.398,277.682 	"/>
	<polygon fill="#009EE0" points="2.418,235.622 8.061,235.622 8.061,281.494 2.418,281.494 2.418,235.622 	"/>
	<polygon fill="#009EE0" points="17.652,235.622 46.243,235.622 46.243,241.248 23.238,241.248 23.238,255.169 43.462,255.169 
		43.462,260.634 23.238,260.634 23.238,281.494 17.652,281.494 17.652,235.622 	"/>
	<path fill="#009EE0" d="M70.214,262.698l-6.255-20.264l-6.65,20.264H70.214z M61.042,235.622h6.312l14.952,45.872h-6.118
		l-4.183-13.735H55.706l-4.458,13.735h-5.723L61.042,235.622L61.042,235.622z"/>
	<polygon fill="#009EE0" points="87.383,235.622 92.832,235.622 92.832,257.982 112.918,235.622 120.632,235.622 103.488,254.114 
		121.108,281.494 113.837,281.494 99.417,258.482 92.832,265.51 92.832,281.494 87.383,281.494 87.383,235.622 	"/>
	<path fill="#009EE0" d="M149.851,263.285c1.121,0.621,1.975,1.427,2.563,2.419c0.564,0.942,0.943,2.047,1.128,3.305
		c0.169,0.862,0.25,2.24,0.25,4.127H141.46c0.048,1.902,0.451,3.426,1.209,4.578c0.758,1.145,1.918,1.717,3.506,1.717
		c1.475,0,2.652-0.54,3.539-1.628c0.5-0.629,0.862-1.354,1.072-2.185h2.781c-0.072,0.685-0.322,1.459-0.741,2.305
		c-0.411,0.839-0.871,1.532-1.387,2.063c-0.862,0.936-1.918,1.564-3.192,1.887c-0.685,0.186-1.451,0.282-2.313,0.282
		c-2.096,0-3.869-0.847-5.328-2.539c-1.459-1.701-2.185-4.079-2.185-7.134s0.734-5.449,2.201-7.327s3.385-2.813,5.747-2.813
		c1.193,0,2.354,0.314,3.474,0.942l0,0H149.851z M150.891,270.637c-0.113-1.362-0.387-2.45-0.798-3.272
		c-0.774-1.516-2.072-2.273-3.877-2.273c-1.297,0-2.386,0.524-3.264,1.572c-0.879,1.04-1.346,2.361-1.403,3.974h9.35H150.891z"/>
	<polygon fill="#009EE0" points="168.415,255.806 175.04,277.682 181.593,255.806 185.1,255.806 176.676,281.494 173.363,281.494 
		164.957,255.806 168.415,255.806 	"/>
	<polygon fill="#009EE0" points="2.499,286.79 2.499,286.79 3.385,286.79 4.272,286.79 4.272,286.79 6.037,292.9 6.029,292.9 
		6.029,292.9 7.786,286.79 7.786,286.79 8.649,286.79 9.511,286.79 9.511,286.79 6.795,294.786 6.005,294.786 5.207,294.786 	"/>
	<polygon fill="#009EE0" points="10.881,294.786 10.881,294.786 10.881,286.79 10.881,286.79 16.774,286.79 16.774,286.79 
		16.774,287.491 16.774,288.208 16.774,288.208 12.55,288.208 12.55,288.208 12.55,289.909 12.55,289.909 16.467,289.909 
		16.467,290.595 16.467,291.28 16.467,291.28 12.55,291.28 12.55,291.28 12.55,293.367 12.55,293.367 16.959,293.367 
		16.959,293.367 16.959,294.076 16.959,294.786 16.959,294.786 	"/>
	<path fill="#009EE0" d="M18.627,294.786v-8.005h4.03c0.758,0,1.378,0.202,1.846,0.613c0.467,0.402,0.701,0.942,0.701,1.612
		c0,0.773-0.258,1.329-0.782,1.692c-0.137,0.097-0.29,0.177-0.467,0.241l0,0c0.097,0.041,0.186,0.081,0.266,0.13
		c0.459,0.273,0.693,0.725,0.709,1.37l0.041,1.313c0,0.258,0.032,0.451,0.081,0.557c0.048,0.112,0.137,0.193,0.274,0.258v0.209
		H23.48c-0.048-0.08-0.081-0.266-0.113-0.54c-0.032-0.273-0.048-0.572-0.057-0.887v-0.741c-0.016-0.354-0.129-0.612-0.33-0.766
		c-0.21-0.153-0.54-0.226-1.024-0.226h-1.668v3.159H18.62L18.627,294.786z M20.296,290.281h1.935c0.436,0,0.758-0.089,0.976-0.267
		c0.218-0.177,0.322-0.443,0.322-0.798s-0.104-0.612-0.306-0.79c-0.202-0.177-0.516-0.266-0.919-0.266h-2.007V290.281
		L20.296,290.281z"/>
	<polygon fill="#009EE0" points="26.986,294.786 26.986,294.786 26.986,286.79 26.986,286.79 32.878,286.79 32.878,286.79 
		32.878,287.491 32.878,288.208 32.878,288.208 28.655,288.208 28.655,288.208 28.655,289.909 28.655,289.909 32.572,289.909 
		32.572,290.595 32.572,291.28 32.572,291.28 28.655,291.28 28.655,291.28 28.655,293.367 28.655,293.367 33.064,293.367 
		33.064,293.367 33.064,294.076 33.064,294.786 33.064,294.786 	"/>
	<polygon fill="#009EE0" points="34.595,294.786 34.595,286.79 34.595,286.79 35.434,286.79 36.264,286.79 36.264,286.79 
		36.264,294.786 36.264,294.786 35.434,294.786 	"/>
	<polygon fill="#009EE0" points="39.617,294.786 39.617,294.786 38.843,294.786 38.062,294.786 38.062,294.786 38.062,286.79 
		38.062,286.79 38.932,286.79 39.811,286.79 39.811,286.79 43.026,292.408 43.026,292.408 43.026,292.408 43.026,286.79 
		43.026,286.79 43.8,286.79 44.582,286.79 44.582,286.79 44.582,294.786 43.752,294.786 42.922,294.786 39.617,289.023 
		39.617,289.023 39.617,289.023 	"/>
	<polygon fill="#009EE0" points="50.716,294.786 50.716,286.79 50.716,286.79 56.407,286.79 56.407,286.79 56.407,287.491 
		56.407,288.208 56.407,288.208 52.385,288.208 52.385,288.208 52.385,290.031 52.385,290.031 55.891,290.031 55.891,290.715 
		55.891,291.401 55.891,291.401 52.385,291.401 52.385,291.401 52.385,294.786 51.555,294.786 	"/>
	<path fill="#009EE0" d="M64.25,291.772c0,1.145-0.25,1.967-0.758,2.475s-1.33,0.757-2.474,0.757s-1.911-0.266-2.435-0.789
		c-0.524-0.524-0.79-1.347-0.798-2.442v-4.99h1.668v5.038c0,0.572,0.129,1.008,0.387,1.29c0.258,0.29,0.653,0.427,1.177,0.427
		c0.556,0,0.959-0.129,1.201-0.395c0.242-0.267,0.363-0.71,0.363-1.33v-5.038h1.668v4.989l0,0V291.772z M59.228,284.589h1.402v1.282
		h-1.402V284.589L59.228,284.589z M61.396,284.589h1.403v1.282h-1.403V284.589L61.396,284.589z"/>
	<path fill="#009EE0" d="M66.2,294.786v-8.005h4.03c0.766,0,1.378,0.202,1.846,0.613c0.468,0.402,0.701,0.942,0.701,1.612
		c0,0.773-0.258,1.329-0.782,1.692c-0.137,0.097-0.29,0.177-0.467,0.241l0,0c0.097,0.041,0.185,0.081,0.266,0.13
		c0.459,0.273,0.693,0.725,0.709,1.37l0.041,1.313c0,0.258,0.032,0.451,0.081,0.557c0.048,0.112,0.137,0.193,0.274,0.258v0.209
		h-1.846c-0.048-0.08-0.081-0.266-0.113-0.54c-0.032-0.273-0.048-0.572-0.057-0.887v-0.741c-0.016-0.354-0.121-0.612-0.331-0.766
		s-0.548-0.226-1.023-0.226h-1.668v3.159h-1.668L66.2,294.786z M67.869,290.281h1.935c0.435,0,0.758-0.089,0.975-0.267
		c0.218-0.177,0.323-0.443,0.323-0.798s-0.105-0.612-0.306-0.79c-0.202-0.177-0.516-0.266-0.919-0.266h-2.007V290.281
		L67.869,290.281z"/>
	<polygon fill="#009EE0" points="80.258,294.786 80.258,294.786 79.476,294.786 78.694,294.786 78.694,294.786 78.694,286.79 
		78.694,286.79 79.919,286.79 81.144,286.79 81.144,286.79 82.603,293.125 82.603,293.125 82.603,293.125 84.038,286.79 
		84.038,286.79 85.247,286.79 86.456,286.79 86.456,286.79 86.456,294.786 86.456,294.786 85.674,294.786 84.893,294.786 
		84.893,294.786 84.893,288.064 84.893,288.064 83.393,294.786 82.571,294.786 81.757,294.786 80.258,287.91 80.258,287.91 	"/>
	<path fill="#009EE0" d="M94.783,291.772c0,1.145-0.25,1.967-0.758,2.475s-1.33,0.757-2.475,0.757s-1.91-0.266-2.434-0.789
		c-0.524-0.524-0.79-1.347-0.798-2.442v-4.99h1.668v5.038c0,0.572,0.129,1.008,0.387,1.29c0.258,0.29,0.653,0.427,1.168,0.427
		c0.556,0,0.959-0.129,1.201-0.395c0.242-0.267,0.363-0.71,0.363-1.33v-5.038h1.668v4.989l0,0L94.783,291.772z"/>
	<polygon fill="#009EE0" points="96.733,294.786 96.733,294.786 96.733,286.79 96.733,286.79 97.563,286.79 98.402,286.79 
		98.402,286.79 98.402,293.367 98.402,293.367 102.383,293.367 102.383,293.367 102.383,294.076 102.383,294.786 102.383,294.786 	
		"/>
	<polygon fill="#009EE0" points="105.575,294.786 105.575,288.208 105.575,288.208 103.157,288.208 103.157,288.208 
		103.157,287.499 103.157,286.79 103.157,286.79 109.662,286.79 109.662,286.79 109.662,287.491 109.662,288.208 109.662,288.208 
		107.244,288.208 107.244,288.208 107.244,294.786 107.244,294.786 106.414,294.786 	"/>
	<polygon fill="#009EE0" points="110.831,294.786 110.831,286.79 110.831,286.79 111.669,286.79 112.507,286.79 112.507,286.79 
		112.507,294.786 112.507,294.786 111.669,294.786 	"/>
	<polygon fill="#009EE0" points="114.498,294.786 114.498,286.79 114.498,286.79 115.329,286.79 116.167,286.79 116.167,286.79 
		116.167,290.103 116.167,290.103 119.23,286.79 119.23,286.79 120.302,286.79 121.366,286.79 121.366,286.79 118.166,290.055 
		118.166,290.055 121.575,294.786 121.575,294.786 120.487,294.786 119.391,294.786 119.391,294.786 116.981,291.272 
		116.981,291.272 116.167,292.102 116.167,292.102 116.167,294.786 116.167,294.786 115.336,294.786 	"/>
	<path fill="#009EE0" d="M129.152,291.772c0,1.145-0.25,1.967-0.758,2.475s-1.33,0.757-2.475,0.757s-1.91-0.266-2.434-0.789
		c-0.524-0.524-0.79-1.347-0.798-2.442v-4.99h1.668v5.038c0,0.572,0.129,1.008,0.387,1.29c0.258,0.29,0.653,0.427,1.177,0.427
		c0.556,0,0.959-0.129,1.201-0.395c0.242-0.267,0.362-0.71,0.362-1.33v-5.038h1.669v4.989l0,0V291.772z"/>
	<polygon fill="#009EE0" points="131.095,294.786 131.095,294.786 131.095,286.79 131.095,286.79 131.933,286.79 132.763,286.79 
		132.763,286.79 132.763,293.367 132.763,293.367 136.745,293.367 136.745,293.367 136.745,294.076 136.745,294.786 
		136.745,294.786 	"/>
	<polygon fill="#009EE0" points="139.945,294.786 139.945,288.208 139.945,288.208 137.527,288.208 137.527,288.208 
		137.527,287.499 137.527,286.79 137.527,286.79 144.032,286.79 144.032,286.79 144.032,287.491 144.032,288.208 144.032,288.208 
		141.614,288.208 141.614,288.208 141.614,294.786 141.614,294.786 140.783,294.786 	"/>
	<path fill="#009EE0" d="M151.753,291.772c0,1.145-0.25,1.967-0.757,2.475s-1.33,0.757-2.475,0.757s-1.911-0.266-2.435-0.789
		c-0.524-0.524-0.79-1.347-0.798-2.442v-4.99h1.668v5.038c0,0.572,0.129,1.008,0.387,1.29c0.258,0.29,0.653,0.427,1.177,0.427
		c0.556,0,0.959-0.129,1.201-0.395c0.242-0.267,0.363-0.71,0.363-1.33v-5.038h1.668v4.989l0,0V291.772z"/>
	<path fill="#009EE0" d="M153.696,294.786v-8.005h4.038c0.766,0,1.378,0.202,1.846,0.613c0.468,0.402,0.701,0.942,0.701,1.612
		c0,0.773-0.258,1.329-0.773,1.692c-0.137,0.097-0.298,0.177-0.468,0.241l0,0c0.097,0.041,0.186,0.081,0.266,0.13
		c0.459,0.273,0.693,0.725,0.709,1.37l0.04,1.313c0,0.258,0.032,0.451,0.081,0.557c0.048,0.112,0.137,0.193,0.274,0.258v0.209
		h-1.846c-0.04-0.08-0.081-0.266-0.113-0.54c-0.032-0.273-0.048-0.572-0.056-0.887v-0.741c-0.016-0.354-0.129-0.612-0.331-0.766
		c-0.209-0.153-0.548-0.226-1.024-0.226h-1.668v3.159h-1.668L153.696,294.786z M155.365,290.281h1.935
		c0.435,0,0.757-0.089,0.975-0.267c0.218-0.177,0.322-0.443,0.322-0.798s-0.104-0.612-0.306-0.79
		c-0.202-0.177-0.508-0.266-0.919-0.266h-2.007V290.281L155.365,290.281L155.365,290.281z"/>
	<polygon fill="#009EE0" points="162.055,294.786 162.055,294.786 162.055,286.79 162.055,286.79 167.947,286.79 167.947,286.79 
		167.947,287.491 167.947,288.208 167.947,288.208 163.723,288.208 163.723,288.208 163.723,289.909 163.723,289.909 
		167.641,289.909 167.641,290.595 167.641,291.28 167.641,291.28 163.723,291.28 163.723,291.28 163.723,293.367 163.723,293.367 
		168.132,293.367 168.132,293.367 168.132,294.076 168.132,294.786 168.132,294.786 	"/>
	<polygon fill="#009EE0" points="169.801,294.786 169.801,294.786 169.801,286.79 169.801,286.79 170.639,286.79 171.469,286.79 
		171.469,286.79 171.469,293.367 171.469,293.367 175.451,293.367 175.451,293.367 175.451,294.076 175.451,294.786 
		175.451,294.786 	"/>
	<polygon fill="#009EE0" points="176.918,294.786 176.918,294.786 176.918,286.79 176.918,286.79 177.756,286.79 178.595,286.79 
		178.595,286.79 178.595,293.367 178.595,293.367 182.568,293.367 182.568,293.367 182.568,294.076 182.568,294.786 
		182.568,294.786 	"/>
	<polygon fill="#009EE0" points="184.043,294.786 184.043,294.786 184.043,286.79 184.043,286.79 189.928,286.79 189.928,286.79 
		189.928,287.491 189.928,288.208 189.928,288.208 185.712,288.208 185.712,288.208 185.712,289.909 185.712,289.909 
		189.629,289.909 189.629,290.595 189.629,291.28 189.629,291.28 185.712,291.28 185.712,291.28 185.712,293.367 185.712,293.367 
		190.121,293.367 190.121,293.367 190.121,294.076 190.121,294.786 190.121,294.786 	"/>
	<polygon fill="#009EE0" points="3.256,308.053 3.256,300.049 3.256,300.049 4.086,300.049 4.925,300.049 4.925,300.049 
		4.925,303.363 4.925,303.363 7.996,300.049 7.996,300.049 9.06,300.049 10.124,300.049 10.124,300.049 6.932,303.314 
		6.932,303.314 10.333,308.053 10.333,308.053 9.245,308.053 8.149,308.053 8.149,308.053 5.739,304.531 5.739,304.531 
		4.925,305.369 4.925,305.369 4.925,308.053 4.925,308.053 4.095,308.053 	"/>
	<polygon fill="#009EE0" points="11.978,308.053 11.978,300.049 11.978,300.049 12.816,300.049 13.646,300.049 13.646,300.049 
		13.646,308.053 13.646,308.053 12.816,308.053 	"/>
	<polygon fill="#009EE0" points="17.62,308.053 17.62,308.053 16.846,308.053 16.056,308.053 16.056,308.053 16.056,300.049 
		16.056,300.049 16.935,300.049 17.813,300.049 17.813,300.049 21.021,305.667 21.021,305.667 21.021,305.667 21.021,300.049 
		21.021,300.049 21.803,300.049 22.585,300.049 22.585,300.049 22.585,308.053 21.755,308.053 20.917,308.053 17.62,302.282 
		17.62,302.282 17.62,302.282 	"/>
	<path fill="#009EE0" d="M25.125,308.053v-8.004h3.425c1.096,0,1.935,0.322,2.507,0.968c0.572,0.645,0.854,1.588,0.854,2.837
		c0,1.37-0.298,2.41-0.887,3.128c-0.588,0.717-1.459,1.071-2.611,1.071H25.125z M26.793,306.675h1.411
		c0.677,0,1.185-0.233,1.531-0.693c0.338-0.459,0.508-1.145,0.508-2.063c0-0.83-0.161-1.459-0.476-1.87
		c-0.314-0.419-0.79-0.629-1.427-0.629h-1.547v5.248l0,0V306.675z"/>
	<polygon fill="#009EE0" points="34.104,308.053 34.104,308.053 34.104,300.049 34.104,300.049 39.996,300.049 39.996,300.049 
		39.996,300.759 39.996,301.476 39.996,301.476 35.772,301.476 35.772,301.476 35.772,303.169 35.772,303.169 39.689,303.169 
		39.689,303.854 39.689,304.547 39.689,304.547 35.772,304.547 35.772,304.547 35.772,306.635 35.772,306.635 40.181,306.635 
		40.181,306.635 40.181,307.344 40.181,308.053 40.181,308.053 	"/>
	<path fill="#009EE0" d="M42.47,308.053v-8.004h4.039c0.757,0,1.378,0.202,1.846,0.613c0.467,0.411,0.701,0.942,0.701,1.611
		c0,0.774-0.258,1.33-0.782,1.693c-0.137,0.097-0.29,0.177-0.468,0.241l0,0c0.097,0.041,0.186,0.081,0.266,0.129
		c0.459,0.274,0.693,0.733,0.709,1.371l0.04,1.313c0,0.258,0.032,0.451,0.081,0.556c0.049,0.113,0.137,0.202,0.274,0.267v0.209
		h-1.846c-0.048-0.08-0.081-0.258-0.113-0.54c-0.032-0.273-0.048-0.572-0.056-0.887v-0.741c-0.016-0.354-0.121-0.612-0.331-0.766
		s-0.54-0.226-1.016-0.226h-1.668v3.159h-1.668H42.47z M44.139,303.548h1.935c0.436,0,0.758-0.089,0.976-0.267
		c0.217-0.177,0.322-0.443,0.322-0.798s-0.105-0.621-0.306-0.79c-0.202-0.177-0.516-0.266-0.919-0.266h-2.007V303.548
		L44.139,303.548L44.139,303.548z"/>
	<polygon fill="#009EE0" points="50.894,304.193 54.013,304.193 54.013,305.667 50.894,305.667 	"/>
	<path fill="#009EE0" d="M67.764,305.038c0,1.146-0.25,1.967-0.758,2.475s-1.33,0.758-2.475,0.758s-1.91-0.266-2.434-0.79
		c-0.524-0.523-0.79-1.338-0.798-2.442v-4.989h1.668v5.038c0,0.572,0.129,1.008,0.387,1.29c0.258,0.281,0.653,0.427,1.177,0.427
		c0.556,0,0.959-0.129,1.201-0.395c0.242-0.267,0.362-0.71,0.362-1.33v-5.038h1.669v4.989l0,0V305.038z"/>
	<polygon fill="#009EE0" points="71.818,308.053 71.818,308.053 71.037,308.053 70.254,308.053 70.254,308.053 70.254,300.049 
		70.254,300.049 71.133,300.049 72.004,300.049 72.004,300.049 75.22,305.667 75.22,305.667 75.22,305.667 75.22,300.049 
		75.22,300.049 75.994,300.049 76.775,300.049 76.775,300.049 76.775,308.053 75.945,308.053 75.115,308.053 71.818,302.282 
		71.818,302.282 71.818,302.282 	"/>
	<path fill="#009EE0" d="M79.314,308.053v-8.004h3.426c1.096,0,1.935,0.322,2.507,0.968c0.572,0.645,0.854,1.588,0.854,2.837
		c0,1.37-0.298,2.41-0.887,3.128c-0.588,0.717-1.459,1.071-2.612,1.071H79.314z M80.983,306.675h1.411
		c0.677,0,1.185-0.233,1.523-0.693c0.338-0.459,0.508-1.145,0.508-2.063c0-0.83-0.161-1.459-0.476-1.87
		c-0.314-0.419-0.79-0.629-1.427-0.629h-1.547v5.248l0,0L80.983,306.675z"/>
	<path fill="#009EE0" d="M96.435,300.049h1.668v5.756c0,0.813-0.218,1.427-0.653,1.846c-0.436,0.411-1.072,0.62-1.927,0.62
		c-0.903,0-1.563-0.226-1.991-0.685c-0.419-0.46-0.613-1.161-0.588-2.12v-0.483h1.588v0.483c-0.016,0.483,0.056,0.847,0.217,1.08
		c0.162,0.233,0.411,0.354,0.758,0.354s0.564-0.089,0.709-0.258s0.218-0.451,0.218-0.838l0,0V300.049L96.435,300.049z"/>
	<path fill="#009EE0" d="M107.099,305.038c0,1.146-0.25,1.967-0.757,2.475s-1.33,0.758-2.475,0.758s-1.911-0.266-2.435-0.79
		c-0.524-0.523-0.79-1.338-0.798-2.442v-4.989h1.668v5.038c0,0.572,0.129,1.008,0.387,1.29c0.258,0.281,0.653,0.427,1.168,0.427
		c0.556,0,0.959-0.129,1.201-0.395c0.242-0.267,0.363-0.71,0.363-1.33v-5.038h1.668v4.989l0,0L107.099,305.038z"/>
	<path fill="#009EE0" d="M113.112,308.271c-1.168,0-2.087-0.379-2.773-1.128c-0.685-0.75-1.023-1.766-1.023-3.047
		c0-1.282,0.354-2.346,1.064-3.111s1.677-1.153,2.886-1.153c0.975,0,1.773,0.242,2.402,0.734c0.629,0.483,1,1.145,1.104,1.967
		h-1.677c-0.041-0.347-0.242-0.653-0.588-0.919c-0.347-0.259-0.733-0.396-1.153-0.396c-0.725,0-1.29,0.25-1.701,0.758
		c-0.411,0.5-0.621,1.201-0.621,2.096s0.193,1.596,0.597,2.071c0.395,0.476,0.967,0.71,1.725,0.71l0,0
		c0.645,0,1.153-0.25,1.516-0.742c0.202-0.282,0.347-0.604,0.443-0.983v-0.016h-1.886v-1.379h3.353v4.313h-1.112l-0.161-1.031l0,0
		l-0.097,0.129c-0.564,0.749-1.322,1.128-2.289,1.128l0,0H113.112z"/>
	<polygon fill="#009EE0" points="119.27,308.053 119.27,308.053 119.27,300.049 119.27,300.049 125.154,300.049 125.154,300.049 
		125.154,300.759 125.154,301.476 125.154,301.476 120.938,301.476 120.938,301.476 120.938,303.169 120.938,303.169 
		124.856,303.169 124.856,303.854 124.856,304.547 124.856,304.547 120.938,304.547 120.938,304.547 120.938,306.635 
		120.938,306.635 125.348,306.635 125.348,306.635 125.348,307.344 125.348,308.053 125.348,308.053 	"/>
	<polygon fill="#009EE0" points="129.112,308.053 129.112,308.053 128.338,308.053 127.548,308.053 127.548,308.053 
		127.548,300.049 127.548,300.049 128.427,300.049 129.305,300.049 129.305,300.049 132.513,305.667 132.513,305.667 
		132.513,305.667 132.513,300.049 132.513,300.049 133.295,300.049 134.077,300.049 134.077,300.049 134.077,308.053 
		133.247,308.053 132.409,308.053 129.112,302.282 129.112,302.282 129.112,302.282 	"/>
	<path fill="#009EE0" d="M136.616,308.053v-8.004h3.426c1.096,0,1.934,0.322,2.506,0.968c0.572,0.645,0.854,1.588,0.854,2.837
		c0,1.37-0.298,2.41-0.887,3.128c-0.588,0.717-1.459,1.071-2.611,1.071H136.616L136.616,308.053z M138.285,306.675h1.411
		c0.677,0,1.185-0.233,1.531-0.693c0.338-0.459,0.508-1.145,0.508-2.063c0-0.83-0.161-1.459-0.476-1.87
		c-0.314-0.419-0.79-0.629-1.427-0.629h-1.547v5.248l0,0V306.675z"/>
	<polygon fill="#009EE0" points="145.531,308.053 145.531,300.049 145.531,300.049 146.369,300.049 147.199,300.049 
		147.199,300.049 147.199,303.056 147.199,303.056 150.335,303.056 150.335,303.056 150.335,300.049 150.335,300.049 
		151.165,300.049 152.003,300.049 152.003,300.049 152.003,308.053 152.003,308.053 151.173,308.053 150.335,308.053 
		150.335,308.053 150.335,304.426 150.335,304.426 147.199,304.426 147.199,304.426 147.199,308.053 147.199,308.053 
		146.369,308.053 	"/>
	<polygon fill="#009EE0" points="154.438,308.053 154.438,300.049 154.438,300.049 155.268,300.049 156.106,300.049 
		156.106,300.049 156.106,308.053 156.106,308.053 155.276,308.053 	"/>
	<polygon fill="#009EE0" points="158.597,308.053 158.597,308.053 158.597,300.049 158.597,300.049 159.435,300.049 
		160.273,300.049 160.273,300.049 160.273,306.635 160.273,306.635 164.247,306.635 164.247,306.635 164.247,307.344 
		164.247,308.053 164.247,308.053 	"/>
	<polygon fill="#009EE0" points="166.343,308.053 166.343,300.049 166.343,300.049 172.034,300.049 172.034,300.049 
		172.034,300.759 172.034,301.476 172.034,301.476 168.011,301.476 168.011,301.476 168.011,303.289 168.011,303.289 
		171.518,303.289 171.518,303.975 171.518,304.668 171.518,304.668 168.011,304.668 168.011,304.668 168.011,308.053 
		167.173,308.053 	"/>
	<polygon fill="#009EE0" points="174.073,308.053 174.073,308.053 174.073,300.049 174.073,300.049 179.965,300.049 
		179.965,300.049 179.965,300.759 179.965,301.476 179.965,301.476 175.75,301.476 175.75,301.476 175.75,303.169 175.75,303.169 
		179.667,303.169 179.667,303.854 179.667,304.547 179.667,304.547 175.75,304.547 175.75,304.547 175.75,306.635 175.75,306.635 
		180.15,306.635 180.15,306.635 180.15,307.344 180.15,308.053 180.15,308.053 	"/>
	<polygon fill="#009EE0" points="187.155,304.193 190.274,304.193 190.274,305.667 187.155,305.667 	"/>
	<polygon fill="#009EE0" points="4.619,321.321 4.619,321.321 3.837,321.321 3.055,321.321 3.055,321.321 3.055,313.317 
		3.055,313.317 4.28,313.317 5.505,313.317 5.505,313.317 6.964,319.653 6.964,319.653 6.964,319.653 8.399,313.317 8.399,313.317 
		9.608,313.317 10.817,313.317 10.817,313.317 10.817,321.321 10.817,321.321 10.035,321.321 9.253,321.321 9.253,321.321 
		9.253,314.59 9.253,314.59 7.754,321.321 6.932,321.321 6.118,321.321 4.619,314.437 4.619,314.437 	"/>
	<polygon fill="#009EE0" points="12.905,321.321 12.905,313.317 12.905,313.317 13.735,313.317 14.573,313.317 14.573,313.317 
		14.573,321.321 14.573,321.321 13.743,321.321 	"/>
	<path fill="#009EE0" d="M20.199,321.531c-1.161,0-2.087-0.371-2.772-1.129c-0.685-0.749-1.024-1.765-1.024-3.047
		c0-1.281,0.355-2.345,1.064-3.111c0.709-0.766,1.677-1.152,2.886-1.152c0.975,0,1.773,0.242,2.402,0.733
		c0.629,0.483,1,1.145,1.104,1.967h-1.677c-0.04-0.347-0.242-0.652-0.588-0.919c-0.347-0.258-0.733-0.395-1.152-0.395
		c-0.726,0-1.298,0.25-1.701,0.758c-0.411,0.499-0.612,1.2-0.612,2.096c0,0.895,0.193,1.596,0.596,2.071
		c0.395,0.476,0.967,0.709,1.725,0.709l0,0c0.645,0,1.153-0.25,1.516-0.741c0.201-0.282,0.346-0.604,0.443-0.983v-0.017H20.53
		v-1.378h3.353v4.313h-1.112l-0.161-1.04l0,0l-0.097,0.129c-0.564,0.75-1.322,1.129-2.289,1.129l0,0L20.199,321.531z"/>
	<path fill="#009EE0" d="M26.051,321.321v-8.004h4.038c0.758,0,1.378,0.202,1.846,0.612c0.467,0.403,0.701,0.943,0.701,1.612
		c0,0.774-0.258,1.33-0.782,1.693c-0.137,0.097-0.291,0.177-0.468,0.241l0,0c0.097,0.04,0.186,0.081,0.266,0.129
		c0.459,0.274,0.693,0.726,0.709,1.37l0.04,1.314c0,0.258,0.032,0.443,0.081,0.556c0.048,0.113,0.137,0.193,0.274,0.258v0.21h-1.846
		c-0.048-0.08-0.081-0.266-0.113-0.54s-0.048-0.572-0.056-0.887v-0.741c-0.016-0.363-0.121-0.613-0.331-0.766
		c-0.209-0.153-0.54-0.226-1.024-0.226H27.72v3.159h-1.668V321.321z M27.72,316.807h1.935c0.435,0,0.758-0.089,0.975-0.266
		c0.218-0.178,0.323-0.443,0.323-0.798c0-0.355-0.105-0.621-0.307-0.79c-0.201-0.178-0.516-0.267-0.918-0.267H27.72V316.807
		L27.72,316.807z"/>
	<path fill="#009EE0" d="M34.096,321.321l2.829-8.004h1.935l2.837,8.004h-1.773l-0.54-1.628h-3.039l-0.524,1.628H34.096z
		 M37.868,315.098l-1.064,3.217h2.128L37.868,315.098L37.868,315.098z"/>
	<polygon fill="#009EE0" points="45.114,321.321 45.114,314.736 45.114,314.736 42.696,314.736 42.696,314.736 42.696,314.027 
		42.696,313.317 42.696,313.317 49.201,313.317 49.201,313.317 49.201,314.027 49.201,314.736 49.201,314.736 46.783,314.736 
		46.783,314.736 46.783,321.321 46.783,321.321 45.953,321.321 	"/>
	<polygon fill="#009EE0" points="50.684,321.321 50.684,313.317 50.684,313.317 51.514,313.317 52.353,313.317 52.353,313.317 
		52.353,321.321 52.353,321.321 51.522,321.321 	"/>
	<path fill="#009EE0" d="M58.019,321.531c-1.177,0-2.112-0.371-2.805-1.129c-0.693-0.749-1.04-1.765-1.04-3.047
		c0-1.281,0.346-2.345,1.04-3.111c0.693-0.766,1.628-1.152,2.805-1.152s2.12,0.387,2.813,1.152c0.693,0.767,1.04,1.806,1.04,3.111
		c0,1.307-0.346,2.298-1.04,3.047C60.139,321.152,59.204,321.531,58.019,321.531L58.019,321.531z M58.019,320.112
		c0.685,0,1.217-0.241,1.596-0.733c0.379-0.491,0.581-1.169,0.581-2.031s-0.193-1.58-0.581-2.079c-0.387-0.5-0.919-0.75-1.596-0.75
		c-0.677,0-1.209,0.25-1.596,0.75c-0.387,0.499-0.58,1.192-0.58,2.079s0.193,1.548,0.572,2.031
		C56.802,319.87,57.334,320.112,58.019,320.112L58.019,320.112z"/>
	<polygon fill="#009EE0" points="65.306,321.321 65.306,321.321 64.532,321.321 63.742,321.321 63.742,321.321 63.742,313.317 
		63.742,313.317 64.621,313.317 65.499,313.317 65.499,313.317 68.707,318.935 68.707,318.935 68.707,318.935 68.707,313.317 
		68.707,313.317 69.489,313.317 70.271,313.317 70.271,313.317 70.271,321.321 69.44,321.321 68.602,321.321 65.306,315.55 
		65.306,315.55 65.306,315.55 	"/>
	<path fill="#009EE0" d="M76.832,315.719L76.832,315.719c-0.032-0.379-0.193-0.686-0.5-0.903c-0.306-0.217-0.701-0.33-1.193-0.33
		c-0.427,0-0.758,0.097-1,0.282s-0.354,0.443-0.354,0.782c0,0.241,0.121,0.427,0.379,0.556c0.25,0.129,0.773,0.282,1.572,0.46
		c1.161,0.266,1.942,0.563,2.337,0.902s0.588,0.879,0.588,1.628c0,0.75-0.298,1.347-0.887,1.79c-0.596,0.443-1.395,0.66-2.402,0.66
		c-1.008,0-1.806-0.233-2.37-0.701c-0.572-0.467-0.879-1.136-0.911-1.999h1.612c0.016,0.428,0.169,0.75,0.459,0.976
		c0.29,0.226,0.693,0.347,1.209,0.347c0.516,0,0.951-0.089,1.25-0.258c0.298-0.169,0.451-0.411,0.451-0.718
		c0-0.306-0.105-0.523-0.322-0.661c-0.209-0.145-0.661-0.29-1.346-0.442c-1.266-0.282-2.12-0.589-2.547-0.919
		c-0.427-0.331-0.637-0.839-0.637-1.532c0-0.773,0.282-1.395,0.847-1.846c0.564-0.451,1.322-0.685,2.281-0.685
		c0.895,0,1.628,0.233,2.185,0.709c0.564,0.468,0.871,1.104,0.935,1.91H76.84L76.832,315.719z"/>
	<path fill="#009EE0" d="M79.927,321.321l2.829-8.004h1.935l2.837,8.004h-1.773l-0.54-1.628h-3.039l-0.524,1.628H79.927z
		 M83.699,315.098l-1.064,3.217h2.128L83.699,315.098L83.699,315.098z"/>
	<path fill="#009EE0" d="M89.221,321.321v-8.004h4.03c0.758,0,1.378,0.202,1.846,0.612c0.468,0.403,0.702,0.943,0.702,1.612
		c0,0.774-0.258,1.33-0.782,1.693c-0.137,0.097-0.29,0.177-0.467,0.241l0,0c0.097,0.04,0.186,0.081,0.266,0.129
		c0.459,0.274,0.693,0.726,0.709,1.37l0.041,1.314c0,0.258,0.032,0.443,0.081,0.556c0.048,0.113,0.137,0.193,0.274,0.258v0.21
		h-1.846c-0.048-0.08-0.081-0.266-0.113-0.54s-0.048-0.572-0.057-0.887v-0.741c-0.016-0.363-0.121-0.613-0.331-0.766
		c-0.201-0.153-0.548-0.226-1.016-0.226h-1.668v3.159h-1.668V321.321z M90.889,316.807h1.935c0.436,0,0.758-0.089,0.976-0.266
		c0.217-0.178,0.322-0.443,0.322-0.798c0-0.355-0.105-0.621-0.306-0.79c-0.202-0.178-0.516-0.267-0.919-0.267h-2.007V316.807
		L90.889,316.807z"/>
	<path fill="#009EE0" d="M97.886,321.321v-8.004h3.877c0.774,0,1.378,0.178,1.813,0.54c0.436,0.354,0.653,0.854,0.653,1.491
		s-0.242,1.169-0.734,1.516c-0.081,0.057-0.169,0.112-0.266,0.161l0,0c0.193,0.072,0.354,0.161,0.5,0.258
		c0.516,0.354,0.766,0.862,0.766,1.54c0,0.813-0.25,1.442-0.757,1.861c-0.508,0.428-1.242,0.637-2.217,0.637H97.886L97.886,321.321z
		 M99.49,314.696v1.757h1.91c0.419,0,0.726-0.081,0.935-0.233c0.21-0.153,0.314-0.396,0.314-0.71c0-0.273-0.113-0.476-0.322-0.612
		s-0.548-0.201-0.983-0.201h-1.846H99.49z M99.49,317.798v2.137h2.031c0.435,0,0.766-0.097,0.983-0.282s0.322-0.476,0.322-0.854
		c0-0.331-0.113-0.58-0.331-0.75c-0.226-0.169-0.556-0.25-1.007-0.25H99.49z"/>
	<polygon fill="#009EE0" points="106.559,321.321 106.559,321.321 106.559,313.317 106.559,313.317 112.451,313.317 
		112.451,313.317 112.451,314.027 112.451,314.736 112.451,314.736 108.227,314.736 108.227,314.736 108.227,316.436 
		108.227,316.436 112.145,316.436 112.145,317.121 112.145,317.815 112.145,317.815 108.227,317.815 108.227,317.815 
		108.227,319.894 108.227,319.894 112.636,319.894 112.636,319.894 112.636,320.604 112.636,321.321 112.636,321.321 	"/>
	<polygon fill="#009EE0" points="114.482,321.321 114.482,313.317 114.482,313.317 115.313,313.317 116.151,313.317 
		116.151,313.317 116.151,321.321 116.151,321.321 115.32,321.321 	"/>
	<polygon fill="#009EE0" points="120.06,321.321 120.06,314.736 120.06,314.736 117.642,314.736 117.642,314.736 117.642,314.027 
		117.642,313.317 117.642,313.317 124.146,313.317 124.146,313.317 124.146,314.027 124.146,314.736 124.146,314.736 
		121.729,314.736 121.729,314.736 121.729,321.321 121.729,321.321 120.898,321.321 	"/>
</g>
<g enable-background="new    ">
	<path fill="#E3E4E4" d="M194.072,251.726H171.13v-16.225h65.659v16.225h-23.323v69.208h-19.394V251.726z"/>
	<path fill="#E3E4E4" d="M266.445,235.501v85.433h-19.394v-85.433H266.445z"/>
	<path fill="#E3E4E4" d="M345.918,318.526c-3.549,1.774-11.534,3.676-21.929,3.676c-29.534,0-44.744-18.379-44.744-42.716
		c0-29.154,20.788-45.378,46.646-45.378c10.014,0,17.619,2.028,21.041,3.803l-3.929,15.337c-3.93-1.648-9.38-3.169-16.225-3.169
		c-15.338,0-27.253,9.253-27.253,28.266c0,17.112,10.141,27.887,27.38,27.887c5.83,0,12.295-1.268,16.098-2.789L345.918,318.526z"/>
	<path fill="#E3E4E4" d="M358.589,235.501h19.14v37.773h0.38c1.901-3.296,3.93-6.338,5.831-9.38l19.394-28.393h23.703L398.77,271.88
		l29.787,49.054h-22.562l-20.915-36.886l-7.352,8.999v27.887h-19.14V235.501z"/>
	<path fill="#E3E4E4" d="M487.242,284.809h-31.435v20.281h35.11v15.844h-54.504v-85.433h52.729v15.844h-33.336v17.746h31.435
		V284.809z"/>
	<path fill="#E3E4E4" d="M521.208,251.726h-22.942v-16.225h65.659v16.225h-23.323v69.208h-19.394V251.726z"/>
</g>
</svg>
