<?xml version="1.0" encoding="utf-8"?>
<!-- Generator: Adobe Illustrator 16.0.3, SVG Export Plug-In . SVG Version: 6.00 Build 0)  -->
<svg version="1.2" baseProfile="tiny" id="Ebene_1" xmlns="http://www.w3.org/2000/svg" xmlns:xlink="http://www.w3.org/1999/xlink"
	 x="0px" y="0px" width="240.945px" height="184.252px" viewBox="0 0 240.945 184.252" xml:space="preserve">
<g>
	<path fill-rule="evenodd" fill="#E3E4E4" d="M172.643,97.377c-2.27-6.983-13.902-20.947-20.617-25.776
		c0.73,7.574,3.201,14.654,4.498,22.137c0.459,1.739-1.389,2.35-2.242,3.285c-6.17,3.584-12.336,7.223-18.645,10.428
		c-1.264,0.795-3.303,1.087-4.646,0.673c-12.208-15.037-23.112-31.092-30.556-48.466c-0.252,0.513,2.564,19.718,2.564,19.718
		c0.174,1.756,1.126,12.685,1.126,12.685c-0.027,5.633-0.063,11.417-0.065,17.434c-3.628,3.096-8.915,3.604-11.876,7.266
		c-2.172,0.023-4.158-1.455-6.061-2.553C78.511,108.99,63.83,93.775,63.12,92.549c-4.044-4.057-14.5-17.656-16.013-19.771
		c1.571,9.896,4.816,20.02,7.253,30.028c0.133,2.863,4.146,5.596,0.957,8.389c-0.694,0.761-1.712,0.934-2.673,1.104
		c0.746,3.487,1.98,7.441,3.585,10.932c-0.001,1.711-3.012,2.891-1.061,4.703c2.26,6.485,5.39,13.139,8.06,19.765
		c-0.032,0.389-0.995,1.387,0.095,1.431l0,0l-0.374,0.408l0,0c0,0,0.7,1.062,0.575,0.903c-0.202,0.399,0.222,0.76,0.613,0.625l0,0
		l-0.388,0.189l0.728,0.618l0,0c-1.926,0.283-2.016-2.803-3.026-4.23c0.975-0.833-0.82-1.164-0.985-1.928
		c-0.166-0.762-0.319-1.36-0.815-1.937c-0.206,0.344-0.919-0.054-0.939,0.499c1.382,0.137,0.833,2.213,1.86,3.033
		c0.635,0.954,0.213,2.361,1.465,3.111c0.168,0.818-0.137,1.389,0.804,1.772c0.293,0.976,0.638,2.722,0.592,2.89
		c0.033,0.495,0.292,0.092-0.303-0.258c0.343-1.732-2.336-2.45-2.072-4.51c-0.749-0.947-0.43-2.182-1.688-3.042
		c-1.454-0.353,0.666-2.028-1.297-2.294c0.227-0.898-0.763-1.168-0.352-1.855c-0.185-0.209-0.463-0.082-0.691-0.068
		c2.041,6.609,5.38,12.975,8.264,19.366c1.729,3.647,3.629,7.284,6.081,10.612c-0.19,1.447-2.014,1.559-2.863,2.551
		c-1.013,1.111-2.779,1.221-3.433,2.586c-0.37,0.465-0.953,1.162-1.686,1.318c-6.406-9.487-10.425-20.061-15.056-30.375l0,0
		l-0.37,0.465l0,0c-0.428-0.416,0.74-0.93-0.087-1.32c-0.167,0.064-0.687-1.725-0.687-1.725l0,0l-0.103,0.172l0,0
		c0.352-0.74-0.694-1.834-0.694-1.834s-0.339-0.808-0.45-0.746l0,0l-0.212-1.477l0,0c-0.243-0.207-0.29-0.921-0.494-1.405
		c-0.717-1.336-1.693-3.981-1.534-4.157c0.124-0.725-0.442-0.635-0.442-0.635c-0.681-0.786,0.357-1.513-0.822-2.047
		c0,0,0.002-0.829-0.479-1.186c0.37-0.465-0.126-1.041-0.391-1.576l0,0l-0.424-0.361l0,0c0.509-0.086,0.169-0.894,0.02-1.436
		c-0.583,0.697-0.496-0.578-0.746-0.894c-0.061-0.052-0.791,0.159-0.791,0.159c-0.167,0.066-0.385,0.244-0.427,0.469l0,0
		l-0.428-0.416l0,0c-0.32,0.352,0.471,1.076,0.471,1.076l0,0l-0.373,0.408l0.691,0.068l0,0c0,0,0.339,0.807,0.468,1.02
		c0.071,0.217-0.06,0.832-0.06,0.832c-0.138,0.506,1.429,0.85,0.486,1.295c0.136,0.323,0.175,0.045-0.125-0.158
		c-0.298,0.682,0.056,1.709,0.417,1.963c0.097,0.602,1.112,0.373,1.075-0.178c0,0,0.01,1.877,0.252,2.083l0,0l0.27-0.237
		l0.432,0.471l0,0c-0.146,0.395-1.135,1.008-1.127,1.118c0.67,0.621,1.118-0.4,1.518,0.458l0,0l0.329,0.643l0,0
		c-0.491,0.361-1.329-0.194-1.324,0.744c0.706,0.287-0.085,0.447,0.564,0.738c0,0,0.239,0.15-0.191,0.564
		c0.353,0.144,0.329,0.642,0.745,0.892l0,0l0.07-0.667l0.577,0.075l0,0c-0.331,0.187-0.357,1.513-0.464,1.63
		c-0.1,0.227,0.139,0.378,0.321,0.532c-0.651,0.536,0.773,0.448-0.113,0.89c1.015-0.228,0.337,1.636,1.37,1.684
		c-0.803,0.822,0.041,1.487,0.146,2.199l0,0l0.72,0.507l0,0c-0.338,0.077-0.672,0.208-1.075,0.177
		c-0.161,0.176,0.033,0.495,0.328,0.643c0,0,0.902,0.662,0.764,1.168c-0.171,0.01-0.346-0.034-0.449,0.138
		c0.403,0.03,0.549,0.519,0.365,1.192c1.277-0.576,0.935,1.156,1.377,1.792c-0.437,1.187,1.032,1.758,1.005,3.085
		c-0.085,0.447-0.474-0.247-0.666,0.316c0.667,0.566,0.457,0.855-0.02,1.438c-0.432-0.471,0.376-1.238-0.354-1.027
		c-0.107,0.117,0.188-0.619-0.347-0.918c0.491-0.361-0.485-0.411-0.336-0.752c0.175,0.045,0.224-0.068,0.277-0.127
		c-0.364-0.309-0.431-0.471-0.575-0.904c0.118,0.049,0.167-0.064,0.217-0.178c0.138-0.506-0.417-0.25-0.539-0.354
		c-0.233-0.924-0.865-1.824-0.866-2.707c-0.457-0.855-0.769-2.105-1.294-3.123c-0.609-2.281-1.66-5.197-2.418-7.139
		c-1.191-3.293-2.04-6.609-3.523-9.996c-0.141-1.262-0.332-2.408-0.928-3.642c-0.653-1.229-1.498-3.606-1.498-3.606
		c0.49-1.245-1.96-7.996-2.524-8.734c0.137-1.389-0.964-4.191-0.964-4.191c-0.378-0.528-4.204-15.089-4.73-19.584
		c-1.061-2.198-4.668-25.55-4.668-25.55c-1.016-12.746-2.966-28.361-2.958-42.054c0.112-0.891,1.887-0.006,1.458-1.305
		c0.038-2.873-1.217-6.274,1.337-8.309c2.599-0.491,5.301-1.155,7.589-2.014c-0.229-0.869-0.736-1.611-0.63-2.611
		c2.789-1.938,5.899-3.345,8.892-4.8c0.376,1.357,0.749,2.66,1.125,4.017c5.938,17.963,24.895,51.08,24.895,51.08
		s7.491,10.304,7.733,10.509c1.998,2.527,6.879,8.851,6.879,8.851l0,0l-0.122-0.104l0,0c0.044,0.66,3.782,4.405,4.061,5.161
		c0.36,0.253,1.238,1.414,1.726,1.881c0,0-5.93-42.864-10.483-63.232l0,0l-0.603-0.459l0,0c0.816-1.486,1.772-2.594,3.199-3.51
		c3.369-0.098,6.733-1.134,9.973-1.444c0.28-3.551,4.857-2.674,7.288-3.983c0.932-0.61,2.121-0.794,3.185-1.136
		c1.408,0.521,1.859,2.149,2.676,3.258c13.432,20.538,19.486,44.567,34.911,64.099c-1.568-7.246-3.791-14.894-5.379-22.47
		c-1.586-7.521-4.563-23.956-4.563-23.956c-0.596-7.252-0.836-15.187-1.267-22.559c0.409-0.743,1.235-0.353,1.901-0.669l0,0
		l6.863-1.749l0.303,0.257l0,0c0.053-0.059,0.16-0.175,0.152-0.285l0,0l0.113-0.007l0,0c0.391,0.694-0.295,2.447-0.23,2.554l0,0
		l0.121,0.103l-0.113,0.007l0,0c-0.307,0.57-0.209,5.479,0.119,6.121c0.633,0.071,0.184,1.038,1.045,1.095l0,0l0.26-0.402l0,0
		c0.313-3.056-0.02-6.349,1.578-8.987c4.254-3.133,10.637-2.644,15.791-4.287c1.678,0.283,4.273-0.264,5.316,1.66
		c1.318,3.507,1.641,7.518,2.793,11.09c4.131,13.989,7.582,28.077,13.99,41.042c1.418,2.397,22.23,37.16,24.037,40.252
		c5.316,6.85,11.811,15.061,18.416,21.5c0.652,1.229,2.441,2.333,3.541,3.369c0.656,1.285,2.576,1.773,2.945,3.021
		c-0.117-0.048-0.182-0.154-0.295-0.147c-0.369,0.465,0.164,0.764,0.471,1.076c-0.471-0.192-0.305,0.57-0.789,0.158l0,0l0.449,0.746
		l0,0c-1.697-1.441-3.693-3.086-5.391-4.526c-0.436,0.358,0.32,0.532,0.342,0.862c0.777,0.504,1.348,1.352,2.08,2.025l0,0
		l-0.268,0.291l0.424,0.361l0,0c0.676-1.035,0.896,0.552,1.014,0.6l0,0l-0.26,0.402l0,0c0.268,0.592,1.279,0.308,1.334,1.133
		c-3.08-1.576-5.129-4.873-8.158-6.564c-0.412-1.022-1.705-1.55-2.215-2.348l0,0l-0.531-0.242l0,0
		c-0.977-0.934-2.84-3.138-2.84-3.138c-0.121-0.104-0.32-0.532-0.709-0.343c-0.1,0.227-0.377,0.354-0.24,0.678
		c0.268,0.591,0.559-0.201,0.873,0.223c-0.295,0.734,0.795,0.778,0.898,1.49c0.385-0.246,0.77,0.393,1.127,0.592
		c0.627,0.846,0.436,1.409,1.49,1.785l0,0l0.426,0.361l-0.211,0.289l0.246,0.26l0,0c0.598-0.479,0.193,0.32,0.488,0.467l0,0
		l0.871,1.051l0,0c-0.053,0.059-0.164,0.121-0.1,0.227c0.613,0.625,0.764,0.285,1.439,1.016c0.055-0.059-0.982-0.16-1.402-0.465
		c-0.168,0.064-0.152,0.285-0.146,0.396c-0.342,0.021-1.391-1.13-1.764-1.603l0,0l-0.488,0.416l1.783,1.877l-1.184-0.589l0,0
		c0,0-1.016,1.057-0.033,1.217l0,0l0.604,0.46l0.105-0.117l0,0c1.262,2.627,3.83,3.407,5.75,5.607
		c-0.377,0.355-0.807-0.943-1.146-0.039l0,0l1.232,1.359l-0.463-0.082l0.205,0.484l0,0c-3.615-2.758-6.584-6.108-10.078-8.764l0,0
		l-0.266,0.293l2.385,2.336l0,0c-0.117-0.047-0.182-0.154-0.291-0.092c-0.332,0.186,0.025,0.385,0.146,0.488
		c0.238,0.15,0.371,0.418,0.6,0.404l0,0l0.102-0.172l0,0c0.125,0.158,0.357,0.199,0.311,0.367l0,0l-0.104,0.172l0.305,0.258
		l0.104-0.172l0,0c0.766,0.339,0.891,1.38,1.623,2.053c0.125,0.158-0.689-0.896-1.119-0.483l0,0l1.348,1.353l0,0
		c-0.174-0.045-0.246-0.261-0.414-0.195c0.098,0.602,0.332,0.697,0.201,1.313c-0.441,0.248-0.363,1.402-1.385,1.521
		c-0.699,1.533-2.041,2.886-2.334,4.506c-0.486,0.416-1,0.447-1.48,0.092C193.322,127.462,183.268,112.678,172.643,97.377
		L172.643,97.377L172.643,97.377L172.643,97.377z"/>
	<polygon fill-rule="evenodd" fill="#008BD0" points="195.953,84.951 200.029,84.951 200.029,89.681 195.953,89.681 195.953,84.951 
		195.953,84.951 	"/>
	<polygon fill-rule="evenodd" fill="#008BD0" points="230.006,84.951 234.08,84.951 234.08,89.681 230.006,89.681 230.006,84.951 
		230.006,84.951 	"/>
	<polygon fill-rule="evenodd" fill="#009EE0" points="3,32.773 9.996,32.773 9.996,89.681 3,89.681 3,32.773 3,32.773 	"/>
	<polygon fill-rule="evenodd" fill="#009EE0" points="21.901,32.773 57.368,32.773 57.368,39.746 28.828,39.746 28.828,57.024 
		53.922,57.024 53.922,63.803 28.828,63.803 28.828,89.681 21.901,89.681 21.901,32.773 21.901,32.773 	"/>
	<path fill-rule="evenodd" fill="#009EE0" d="M87.108,66.36l-7.762-25.142L71.097,66.36H87.108L87.108,66.36L87.108,66.36z
		 M75.726,32.773h7.832l18.551,56.908h-7.587l-5.187-17.045H69.113l-5.534,17.045h-7.1L75.726,32.773L75.726,32.773L75.726,32.773z"
		/>
	<polygon fill-rule="evenodd" fill="#009EE0" points="108.412,32.773 115.165,32.773 115.165,60.511 140.086,32.773 149.656,32.773 
		128.391,55.707 150.248,89.681 141.234,89.681 123.344,61.13 115.165,69.847 115.165,89.681 108.412,89.681 108.412,32.773 
		108.412,32.773 	"/>
	<path fill-rule="evenodd" fill="#009EE0" d="M185.912,67.093c1.391,0.767,2.449,1.766,3.178,2.995
		c0.703,1.171,1.17,2.539,1.404,4.101c0.207,1.071,0.311,2.777,0.313,5.121l0,0h-15.305l0,0c0.064,2.358,0.564,4.253,1.502,5.685
		c0.936,1.418,2.385,2.126,4.346,2.126c1.834,0,3.295-0.673,4.387-2.018c0.625-0.781,1.066-1.685,1.326-2.713l0,0h3.451l0,0
		c-0.092,0.854-0.396,1.809-0.916,2.864c-0.508,1.042-1.08,1.896-1.717,2.561c-1.066,1.158-2.385,1.938-3.957,2.344
		c-0.846,0.231-1.801,0.346-2.865,0.347c-2.6,0-4.803-1.049-6.609-3.146c-1.807-2.112-2.709-5.062-2.709-8.853
		c0-3.732,0.91-6.762,2.729-9.091c1.82-2.329,4.197-3.493,7.135-3.493C183.086,65.922,184.521,66.313,185.912,67.093L185.912,67.093
		L185.912,67.093L185.912,67.093z M187.199,76.207c-0.143-1.692-0.475-3.044-0.994-4.058c-0.963-1.88-2.566-2.82-4.814-2.821
		c-1.613,0-2.965,0.651-4.055,1.953c-1.094,1.288-1.672,2.929-1.736,4.925l0,0H187.199L187.199,76.207L187.199,76.207z"/>
	<polygon fill-rule="evenodd" fill="#009EE0" points="208.938,57.807 217.164,84.951 225.295,57.807 229.643,57.807 219.191,89.681 
		215.08,89.681 204.648,57.807 208.938,57.807 208.938,57.807 	"/>
	<polygon fill="#009EE0" points="3.099,96.246 3.099,96.246 4.201,96.246 5.303,96.246 5.303,96.246 7.486,103.83 7.481,103.83 
		7.481,103.83 9.657,96.246 9.657,96.246 10.725,96.246 11.796,96.246 11.796,96.246 8.433,106.174 7.449,106.174 6.462,106.174 
		3.099,96.246 	"/>
	<polygon fill="#009EE0" points="13.5,106.174 13.5,106.174 13.5,96.246 13.5,96.246 20.807,96.246 20.807,96.246 20.807,97.125 
		20.807,98.01 20.807,98.01 15.572,98.01 15.572,98.01 15.572,100.117 15.572,100.117 20.429,100.117 20.429,100.967 
		20.429,101.824 20.429,101.824 15.572,101.824 15.572,101.824 15.572,104.411 15.572,104.411 21.037,104.411 21.037,104.411 
		21.037,105.289 21.037,106.174 21.037,106.174 13.5,106.174 	"/>
	<path fill="#009EE0" d="M23.109,106.174v-9.928l0,0h1.033l0,0h3.972c0.945,0,1.708,0.254,2.287,0.762
		c0.579,0.504,0.867,1.173,0.867,2c0,0.957-0.323,1.652-0.966,2.096c-0.17,0.117-0.364,0.217-0.581,0.297l0,0
		c0.122,0.049,0.233,0.104,0.332,0.162c0.567,0.336,0.862,0.905,0.883,1.701l0.048,1.627c0.009,0.324,0.044,0.555,0.102,0.689
		c0.058,0.136,0.17,0.244,0.336,0.324v0.264h-2.289c-0.056-0.104-0.102-0.326-0.143-0.666s-0.063-0.706-0.067-1.098l-0.014-0.918
		c-0.01-0.444-0.141-0.762-0.395-0.951c-0.256-0.189-0.675-0.283-1.266-0.283h-2.067l0,0v3.922l0,0h-1.033H23.109L23.109,106.174z
		 M25.181,100.582L25.181,100.582h2.404c0.537,0,0.938-0.107,1.208-0.327c0.268-0.219,0.401-0.548,0.401-0.989
		c0-0.438-0.127-0.765-0.383-0.984c-0.253-0.219-0.636-0.326-1.143-0.326h-2.487l0,0V100.582L25.181,100.582z"/>
	<polygon fill="#009EE0" points="33.481,106.174 33.481,106.174 33.481,96.246 33.481,96.246 40.788,96.246 40.788,96.246 
		40.788,97.125 40.788,98.01 40.788,98.01 35.553,98.01 35.553,98.01 35.553,100.117 35.553,100.117 40.41,100.117 40.41,100.967 
		40.41,101.824 40.41,101.824 35.553,101.824 35.553,101.824 35.553,104.411 35.553,104.411 41.019,104.411 41.019,104.411 
		41.019,105.289 41.019,106.174 41.019,106.174 33.481,106.174 	"/>
	<polygon fill="#009EE0" points="42.922,106.174 42.922,96.246 42.922,96.246 43.955,96.246 44.995,96.246 44.995,96.246 
		44.995,106.174 44.995,106.174 43.962,106.174 42.922,106.174 	"/>
	<polygon fill="#009EE0" points="49.155,106.174 49.155,106.174 48.189,106.174 47.216,106.174 47.216,106.174 47.216,96.246 
		47.216,96.246 48.304,96.246 49.392,96.246 49.392,96.246 53.375,103.217 53.375,103.217 53.375,103.217 53.375,96.246 
		53.375,96.246 54.341,96.246 55.314,96.246 55.314,96.246 55.314,106.174 54.281,106.174 53.246,106.174 49.155,99.016 
		49.155,99.016 49.155,99.016 49.155,106.174 	"/>
	<polygon fill="#009EE0" points="62.921,106.174 62.921,96.246 62.921,96.246 69.984,96.246 69.984,96.246 69.984,97.125 
		69.984,98.01 69.984,98.01 64.994,98.01 64.994,98.01 64.994,100.267 64.994,100.267 69.343,100.267 69.343,101.117 
		69.343,101.975 69.343,101.975 64.994,101.975 64.994,101.975 64.994,106.174 63.961,106.174 62.921,106.174 	"/>
	<path fill="#009EE0" d="M79.711,102.434c0.004,1.418-0.307,2.441-0.936,3.068c-0.627,0.629-1.65,0.941-3.07,0.941
		c-1.357,0-2.367-0.326-3.022-0.98c-0.655-0.655-0.984-1.665-0.989-3.029v-6.188l0,0h1.033h1.04l0,0v6.254
		c0,0.713,0.161,1.245,0.484,1.602c0.32,0.355,0.807,0.533,1.455,0.533c0.694,0,1.189-0.164,1.487-0.488
		c0.297-0.328,0.447-0.877,0.447-1.646v-6.254l0,0h1.033h1.04l0,0V102.434L79.711,102.434z M73.476,93.52h1.743v1.586h-1.743V93.52
		L73.476,93.52z M76.17,93.52h1.743v1.586H76.17V93.52L76.17,93.52z"/>
	<path fill="#009EE0" d="M82.126,106.174v-9.928l0,0h1.033l0,0h3.971c0.946,0,1.708,0.254,2.287,0.762
		c0.578,0.504,0.867,1.173,0.867,2c0,0.957-0.323,1.652-0.966,2.096c-0.171,0.117-0.364,0.217-0.581,0.297l0,0
		c0.122,0.049,0.233,0.104,0.332,0.162c0.567,0.336,0.862,0.905,0.883,1.701L90,104.891c0.009,0.324,0.044,0.555,0.102,0.689
		c0.058,0.136,0.17,0.244,0.336,0.324v0.264h-2.289c-0.055-0.104-0.101-0.326-0.143-0.666s-0.063-0.706-0.067-1.098l-0.014-0.918
		c-0.009-0.444-0.14-0.762-0.394-0.951c-0.256-0.189-0.675-0.283-1.266-0.283h-2.067l0,0v3.922l0,0h-1.033H82.126L82.126,106.174z
		 M84.198,100.582L84.198,100.582h2.404c0.538,0,0.938-0.107,1.208-0.327c0.268-0.219,0.401-0.548,0.401-0.989
		c0-0.438-0.127-0.765-0.383-0.984c-0.253-0.219-0.636-0.326-1.143-0.326h-2.487l0,0V100.582L84.198,100.582z"/>
	<polygon fill="#009EE0" points="99.566,106.174 99.566,106.174 98.601,106.174 97.628,106.174 97.628,106.174 97.628,96.246 
		97.628,96.246 99.147,96.246 100.668,96.246 100.668,96.246 102.476,104.113 102.476,104.113 102.476,104.113 104.26,96.246 
		104.26,96.246 105.761,96.246 107.259,96.246 107.259,96.246 107.259,106.174 107.259,106.174 106.293,106.174 105.32,106.174 
		105.32,106.174 105.32,97.828 105.323,97.828 103.462,106.174 102.443,106.174 101.425,106.174 99.569,97.643 99.566,97.643 
		99.566,106.174 	"/>
	<path fill="#009EE0" d="M117.592,102.434c0.005,1.418-0.307,2.441-0.936,3.068c-0.627,0.629-1.651,0.941-3.071,0.941
		c-1.357,0-2.367-0.326-3.022-0.98c-0.654-0.655-0.984-1.665-0.989-3.029v-6.188l0,0h1.033h1.04l0,0v6.254
		c0,0.713,0.162,1.245,0.484,1.602c0.32,0.355,0.807,0.533,1.454,0.533c0.694,0,1.189-0.164,1.487-0.488
		c0.297-0.328,0.447-0.877,0.447-1.646v-6.254l0,0h1.033h1.04l0,0V102.434L117.592,102.434z"/>
	<polygon fill="#009EE0" points="120.007,106.174 120.007,106.174 120.007,96.246 120.007,96.246 121.039,96.246 122.079,96.246 
		122.079,96.246 122.079,104.411 122.079,104.411 127.017,104.411 127.017,104.411 127.017,105.289 127.017,106.174 
		127.017,106.174 120.007,106.174 	"/>
	<polygon fill="#009EE0" points="130.98,106.174 130.98,98.01 130.98,98.01 127.982,98.01 127.982,98.01 127.982,97.132 
		127.982,96.246 127.982,96.246 136.053,96.246 136.053,96.246 136.053,97.125 136.053,98.01 136.053,98.01 133.053,98.01 
		133.053,98.01 133.053,106.174 133.053,106.174 132.02,106.174 130.98,106.174 	"/>
	<polygon fill="#009EE0" points="137.504,106.174 137.504,96.246 137.504,96.246 138.537,96.246 139.576,96.246 139.576,96.246 
		139.576,106.174 139.576,106.174 138.543,106.174 137.504,106.174 	"/>
	<polygon fill="#009EE0" points="142.047,106.174 142.047,96.246 142.047,96.246 143.08,96.246 144.119,96.246 144.119,96.246 
		144.119,100.359 144.119,100.359 147.924,96.246 147.924,96.246 149.248,96.246 150.568,96.246 150.568,96.246 146.605,100.299 
		146.605,100.299 150.834,106.174 150.834,106.174 149.477,106.174 148.121,106.174 148.121,106.174 145.129,101.809 
		145.129,101.809 144.119,102.842 144.119,102.842 144.119,106.174 144.119,106.174 143.086,106.174 142.047,106.174 	"/>
	<path fill="#009EE0" d="M160.229,102.434c0.004,1.418-0.307,2.441-0.936,3.068c-0.627,0.629-1.65,0.941-3.07,0.941
		c-1.357,0-2.367-0.326-3.023-0.98c-0.654-0.655-0.982-1.665-0.988-3.029v-6.188l0,0h1.033h1.039l0,0v6.254
		c0,0.713,0.162,1.245,0.484,1.602c0.32,0.355,0.807,0.533,1.455,0.533c0.693,0,1.189-0.164,1.486-0.488
		c0.297-0.328,0.447-0.877,0.447-1.646v-6.254l0,0h1.033h1.039l0,0V102.434L160.229,102.434z"/>
	<polygon fill="#009EE0" points="162.643,106.174 162.643,106.174 162.643,96.246 162.643,96.246 163.676,96.246 164.715,96.246 
		164.715,96.246 164.715,104.411 164.715,104.411 169.652,104.411 169.652,104.411 169.652,105.289 169.652,106.174 
		169.652,106.174 162.643,106.174 	"/>
	<polygon fill="#009EE0" points="173.617,106.174 173.617,98.01 173.617,98.01 170.619,98.01 170.619,98.01 170.619,97.132 
		170.619,96.246 170.619,96.246 178.689,96.246 178.689,96.246 178.689,97.125 178.689,98.01 178.689,98.01 175.689,98.01 
		175.689,98.01 175.689,106.174 175.689,106.174 174.656,106.174 173.617,106.174 	"/>
	<path fill="#009EE0" d="M188.266,102.434c0.004,1.418-0.307,2.441-0.936,3.068c-0.627,0.629-1.65,0.941-3.07,0.941
		c-1.357,0-2.367-0.326-3.023-0.98c-0.654-0.655-0.982-1.665-0.988-3.029v-6.188l0,0h1.033h1.039l0,0v6.254
		c0,0.713,0.162,1.245,0.484,1.602c0.32,0.355,0.807,0.533,1.455,0.533c0.693,0,1.189-0.164,1.486-0.488
		c0.297-0.328,0.447-0.877,0.447-1.646v-6.254l0,0h1.033h1.039l0,0V102.434L188.266,102.434z"/>
	<path fill="#009EE0" d="M190.68,106.174v-9.928l0,0h1.033l0,0h3.973c0.945,0,1.707,0.254,2.285,0.762
		c0.58,0.504,0.867,1.173,0.867,2c0,0.957-0.322,1.652-0.965,2.096c-0.172,0.117-0.365,0.217-0.582,0.297l0,0
		c0.123,0.049,0.234,0.104,0.332,0.162c0.568,0.336,0.863,0.905,0.883,1.701l0.049,1.627c0.01,0.324,0.043,0.555,0.102,0.689
		c0.059,0.136,0.17,0.244,0.336,0.324v0.264h-2.289c-0.055-0.104-0.102-0.326-0.143-0.666s-0.063-0.706-0.066-1.098l-0.014-0.918
		c-0.01-0.444-0.141-0.762-0.395-0.951c-0.256-0.189-0.676-0.283-1.266-0.283h-2.066l0,0v3.922l0,0h-1.033H190.68L190.68,106.174z
		 M192.754,100.582L192.754,100.582h2.402c0.537,0,0.939-0.107,1.209-0.327c0.268-0.219,0.4-0.548,0.4-0.989
		c0-0.438-0.127-0.765-0.383-0.984c-0.254-0.219-0.635-0.326-1.143-0.326h-2.486l0,0V100.582L192.754,100.582z"/>
	<polygon fill="#009EE0" points="201.053,106.174 201.053,106.174 201.053,96.246 201.053,96.246 208.359,96.246 208.359,96.246 
		208.359,97.125 208.359,98.01 208.359,98.01 203.125,98.01 203.125,98.01 203.125,100.117 203.125,100.117 207.982,100.117 
		207.982,100.967 207.982,101.824 207.982,101.824 203.125,101.824 203.125,101.824 203.125,104.411 203.125,104.411 
		208.59,104.411 208.59,104.411 208.59,105.289 208.59,106.174 208.59,106.174 201.053,106.174 	"/>
	<polygon fill="#009EE0" points="210.662,106.174 210.662,106.174 210.662,96.246 210.662,96.246 211.695,96.246 212.734,96.246 
		212.734,96.246 212.734,104.411 212.734,104.411 217.672,104.411 217.672,104.411 217.672,105.289 217.672,106.174 
		217.672,106.174 210.662,106.174 	"/>
	<polygon fill="#009EE0" points="219.494,106.174 219.494,106.174 219.494,96.246 219.494,96.246 220.527,96.246 221.566,96.246 
		221.566,96.246 221.566,104.411 221.566,104.411 226.504,104.411 226.504,104.411 226.504,105.289 226.504,106.174 
		226.504,106.174 219.494,106.174 	"/>
	<polygon fill="#009EE0" points="228.328,106.174 228.328,106.174 228.328,96.246 228.328,96.246 235.635,96.246 235.635,96.246 
		235.635,97.125 235.635,98.01 235.635,98.01 230.4,98.01 230.4,98.01 230.4,100.117 230.4,100.117 235.256,100.117 
		235.256,100.967 235.256,101.824 235.256,101.824 230.4,101.824 230.4,101.824 230.4,104.411 230.4,104.411 235.865,104.411 
		235.865,104.411 235.865,105.289 235.865,106.174 235.865,106.174 228.328,106.174 	"/>
	<polygon fill="#009EE0" points="4.038,122.631 4.038,112.703 4.038,112.703 5.07,112.703 6.11,112.703 6.11,112.703 6.11,116.814 
		6.11,116.814 9.916,112.703 9.916,112.703 11.239,112.703 12.56,112.703 12.56,112.703 8.597,116.755 8.597,116.755 
		12.824,122.631 12.824,122.631 11.467,122.631 10.111,122.631 10.111,122.631 7.12,118.265 7.12,118.265 6.11,119.297 
		6.11,119.297 6.11,122.631 6.11,122.631 5.077,122.631 4.038,122.631 	"/>
	<polygon fill="#009EE0" points="14.862,122.631 14.862,112.703 14.862,112.703 15.895,112.703 16.935,112.703 16.935,112.703 
		16.935,122.631 16.935,122.631 15.902,122.631 14.862,122.631 	"/>
	<polygon fill="#009EE0" points="21.863,122.631 21.863,122.631 20.897,122.631 19.925,122.631 19.925,122.631 19.925,112.703 
		19.925,112.703 21.013,112.703 22.101,112.703 22.101,112.703 26.084,119.674 26.084,119.674 26.084,119.674 26.084,112.703 
		26.084,112.703 27.05,112.703 28.022,112.703 28.022,112.703 28.022,122.631 26.99,122.631 25.955,122.631 21.863,115.471 
		21.863,115.471 21.863,115.471 21.863,122.631 	"/>
	<path fill="#009EE0" d="M31.167,122.631v-9.928l0,0H32.2l0,0h3.215c1.362,0,2.399,0.4,3.11,1.203
		c0.708,0.799,1.063,1.973,1.063,3.518c0,1.701-0.369,2.994-1.104,3.879s-1.814,1.328-3.239,1.328H32.2l0,0H31.167L31.167,122.631z
		 M33.239,120.922L33.239,120.922h1.75c0.841,0,1.473-0.285,1.895-0.855c0.422-0.568,0.632-1.424,0.632-2.563
		c0-1.03-0.196-1.805-0.588-2.318c-0.392-0.517-0.982-0.775-1.771-0.775h-1.917l0,0V120.922L33.239,120.922z"/>
	<polygon fill="#009EE0" points="42.308,122.631 42.308,122.631 42.308,112.703 42.308,112.703 49.615,112.703 49.615,112.703 
		49.615,113.58 49.615,114.466 49.615,114.466 44.38,114.466 44.38,114.466 44.38,116.572 44.38,116.572 49.237,116.572 
		49.237,117.424 49.237,118.281 49.237,118.281 44.38,118.281 44.38,118.281 44.38,120.867 44.38,120.867 49.845,120.867 
		49.845,120.867 49.845,121.745 49.845,122.631 49.845,122.631 42.308,122.631 	"/>
	<path fill="#009EE0" d="M52.686,122.631v-9.928l0,0h1.033l0,0h3.972c0.945,0,1.708,0.253,2.287,0.76
		c0.579,0.506,0.867,1.174,0.867,2.001c0,0.956-0.323,1.653-0.966,2.095c-0.17,0.118-0.364,0.217-0.581,0.298l0,0
		c0.122,0.049,0.233,0.104,0.332,0.161c0.567,0.337,0.862,0.906,0.883,1.701l0.049,1.628c0.009,0.325,0.043,0.556,0.101,0.688
		c0.058,0.137,0.17,0.245,0.336,0.326v0.262h-2.289c-0.056-0.104-0.102-0.324-0.143-0.666c-0.042-0.338-0.063-0.705-0.067-1.097
		l-0.014-0.917c-0.01-0.445-0.141-0.764-0.395-0.953c-0.256-0.188-0.675-0.283-1.265-0.283h-2.068l0,0v3.924l0,0h-1.033H52.686
		L52.686,122.631z M54.758,117.038L54.758,117.038h2.404c0.537,0,0.938-0.108,1.208-0.327c0.268-0.219,0.401-0.549,0.401-0.988
		c0-0.438-0.127-0.766-0.383-0.984c-0.253-0.219-0.636-0.328-1.143-0.328h-2.487l0,0V117.038L54.758,117.038z"/>
	<polygon fill="#009EE0" points="63.144,117.843 67.007,117.843 67.007,119.666 63.144,119.666 63.144,117.843 	"/>
	<path fill="#009EE0" d="M84.074,118.889c0.005,1.418-0.307,2.441-0.936,3.068c-0.627,0.629-1.65,0.943-3.07,0.943
		c-1.357,0-2.367-0.328-3.022-0.982s-0.984-1.664-0.989-3.029v-6.186l0,0h1.033h1.04l0,0v6.253c0,0.712,0.162,1.245,0.484,1.603
		c0.32,0.354,0.807,0.532,1.455,0.532c0.694,0,1.189-0.163,1.487-0.489c0.297-0.327,0.447-0.875,0.447-1.646v-6.253l0,0h1.033h1.04
		l0,0V118.889L84.074,118.889z"/>
	<polygon fill="#009EE0" points="89.095,122.631 89.095,122.631 88.129,122.631 87.156,122.631 87.156,122.631 87.156,112.703 
		87.156,112.703 88.245,112.703 89.333,112.703 89.333,112.703 93.315,119.674 93.315,119.674 93.315,119.674 93.315,112.703 
		93.315,112.703 94.281,112.703 95.254,112.703 95.254,112.703 95.254,122.631 94.222,122.631 93.187,122.631 89.095,115.471 
		89.095,115.471 89.095,115.471 89.095,122.631 	"/>
	<path fill="#009EE0" d="M98.398,122.631v-9.928l0,0h1.033l0,0h3.215c1.362,0,2.4,0.4,3.11,1.203
		c0.708,0.799,1.063,1.973,1.063,3.518c0,1.701-0.369,2.994-1.104,3.879s-1.814,1.328-3.239,1.328h-3.045l0,0H98.398L98.398,122.631
		z M100.471,120.922L100.471,120.922h1.75c0.841,0,1.473-0.285,1.895-0.855c0.422-0.568,0.632-1.424,0.632-2.563
		c0-1.03-0.196-1.805-0.588-2.318c-0.392-0.517-0.981-0.775-1.77-0.775h-1.918l0,0V120.922L100.471,120.922z"/>
	<path fill="#009EE0" d="M119.645,112.703L119.645,112.703h1.033h1.04l0,0v7.139c0,1.007-0.27,1.77-0.812,2.286
		c-0.539,0.515-1.334,0.772-2.388,0.772c-1.122,0-1.943-0.283-2.466-0.851c-0.521-0.567-0.765-1.443-0.729-2.628v-0.596h1.971v0.596
		c-0.019,0.604,0.071,1.051,0.267,1.342c0.196,0.29,0.507,0.436,0.936,0.436c0.41,0,0.703-0.106,0.88-0.318
		c0.178-0.212,0.268-0.558,0.268-1.039l0,0V112.703L119.645,112.703z"/>
	<path fill="#009EE0" d="M132.873,118.889c0.006,1.418-0.307,2.441-0.936,3.068c-0.627,0.629-1.65,0.943-3.07,0.943
		c-1.357,0-2.367-0.328-3.021-0.982s-0.984-1.664-0.989-3.029v-6.186l0,0h1.032h1.04l0,0v6.253c0,0.712,0.161,1.245,0.484,1.603
		c0.32,0.354,0.807,0.532,1.454,0.532c0.694,0,1.189-0.163,1.486-0.489c0.298-0.327,0.447-0.875,0.447-1.646v-6.253l0,0h1.033h1.039
		l0,0V118.889L132.873,118.889z"/>
	<path fill="#009EE0" d="M140.326,122.9c-1.445,0-2.592-0.466-3.441-1.396c-0.848-0.934-1.271-2.195-1.271-3.783
		c0-1.621,0.439-2.906,1.322-3.859c0.883-0.951,2.076-1.429,3.58-1.429c1.207,0,2.201,0.302,2.982,0.906
		c0.781,0.602,1.236,1.417,1.367,2.442l0,0h-2.08l0,0c-0.053-0.43-0.297-0.811-0.73-1.139c-0.43-0.324-0.908-0.488-1.432-0.488
		c-0.9,0-1.605,0.312-2.113,0.936c-0.51,0.623-0.766,1.49-0.766,2.596c0,1.125,0.244,1.982,0.736,2.57
		c0.488,0.588,1.203,0.881,2.143,0.881h-0.006c0.803,0,1.43-0.307,1.879-0.918c0.248-0.348,0.43-0.754,0.549-1.221v-0.021l0,0
		h-2.336v-1.708h4.156v5.354h-1.383l-0.203-1.283l0,0l-0.123,0.164c-0.697,0.931-1.643,1.396-2.836,1.396H140.326L140.326,122.9z"/>
	<polygon fill="#009EE0" points="147.969,122.631 147.969,122.631 147.969,112.703 147.969,112.703 155.275,112.703 
		155.275,112.703 155.275,113.58 155.275,114.466 155.275,114.466 150.041,114.466 150.041,114.466 150.041,116.572 
		150.041,116.572 154.896,116.572 154.896,117.424 154.896,118.281 154.896,118.281 150.041,118.281 150.041,118.281 
		150.041,120.867 150.041,120.867 155.506,120.867 155.506,120.867 155.506,121.745 155.506,122.631 155.506,122.631 
		147.969,122.631 	"/>
	<polygon fill="#009EE0" points="160.184,122.631 160.184,122.631 159.217,122.631 158.244,122.631 158.244,122.631 
		158.244,112.703 158.244,112.703 159.332,112.703 160.42,112.703 160.42,112.703 164.404,119.674 164.404,119.674 164.404,119.674 
		164.404,112.703 164.404,112.703 165.369,112.703 166.342,112.703 166.342,112.703 166.342,122.631 165.311,122.631 
		164.275,122.631 160.184,115.471 160.184,115.471 160.184,115.471 160.184,122.631 	"/>
	<path fill="#009EE0" d="M169.486,122.631v-9.928l0,0h1.033l0,0h3.215c1.363,0,2.4,0.4,3.109,1.203
		c0.709,0.799,1.063,1.973,1.063,3.518c0,1.701-0.367,2.994-1.104,3.879c-0.734,0.885-1.814,1.328-3.238,1.328h-3.045l0,0H169.486
		L169.486,122.631z M171.559,120.922L171.559,120.922h1.75c0.842,0,1.473-0.285,1.895-0.855c0.422-0.568,0.631-1.424,0.631-2.563
		c0-1.03-0.195-1.805-0.588-2.318c-0.391-0.517-0.98-0.775-1.77-0.775h-1.918l0,0V120.922L171.559,120.922z"/>
	<polygon fill="#009EE0" points="180.553,122.631 180.553,112.703 180.553,112.703 181.586,112.703 182.625,112.703 
		182.625,112.703 182.625,116.426 182.625,116.426 186.51,116.426 186.51,116.426 186.51,112.703 186.51,112.703 187.543,112.703 
		188.582,112.703 188.582,112.703 188.582,122.631 188.582,122.631 187.549,122.631 186.51,122.631 186.51,122.631 186.51,118.133 
		186.51,118.133 182.625,118.133 182.625,118.133 182.625,122.631 182.625,122.631 181.594,122.631 180.553,122.631 	"/>
	<polygon fill="#009EE0" points="191.6,122.631 191.6,112.703 191.6,112.703 192.633,112.703 193.672,112.703 193.672,112.703 
		193.672,122.631 193.672,122.631 192.639,122.631 191.6,122.631 	"/>
	<polygon fill="#009EE0" points="196.764,122.631 196.764,122.631 196.764,112.703 196.764,112.703 197.797,112.703 
		198.836,112.703 198.836,112.703 198.836,120.867 198.836,120.867 203.773,120.867 203.773,120.867 203.773,121.745 
		203.773,122.631 203.773,122.631 196.764,122.631 	"/>
	<polygon fill="#009EE0" points="206.365,122.631 206.365,112.703 206.365,112.703 213.428,112.703 213.428,112.703 213.428,113.58 
		213.428,114.466 213.428,114.466 208.438,114.466 208.438,114.466 208.438,116.723 208.438,116.723 212.787,116.723 
		212.787,117.573 212.787,118.431 212.787,118.431 208.438,118.431 208.438,118.431 208.438,122.631 207.404,122.631 
		206.365,122.631 	"/>
	<polygon fill="#009EE0" points="215.965,122.631 215.965,122.631 215.965,112.703 215.965,112.703 223.273,112.703 
		223.273,112.703 223.273,113.58 223.273,114.466 223.273,114.466 218.037,114.466 218.037,114.466 218.037,116.572 
		218.037,116.572 222.895,116.572 222.895,117.424 222.895,118.281 222.895,118.281 218.037,118.281 218.037,118.281 
		218.037,120.867 218.037,120.867 223.502,120.867 223.502,120.867 223.502,121.745 223.502,122.631 223.502,122.631 
		215.965,122.631 	"/>
	<polygon fill="#009EE0" points="232.193,117.843 236.057,117.843 236.057,119.666 232.193,119.666 232.193,117.843 	"/>
	<polygon fill="#009EE0" points="5.727,139.086 5.727,139.086 4.761,139.086 3.789,139.086 3.789,139.086 3.789,129.158 
		3.789,129.158 5.308,129.158 6.829,129.158 6.829,129.158 8.636,137.025 8.636,137.025 8.636,137.025 10.42,129.158 10.42,129.158 
		11.921,129.158 13.419,129.158 13.419,129.158 13.419,139.086 13.419,139.086 12.453,139.086 11.48,139.086 11.48,139.086 
		11.48,130.74 11.483,130.74 9.623,139.086 8.604,139.086 7.585,139.086 5.729,130.555 5.727,130.555 5.727,139.086 	"/>
	<polygon fill="#009EE0" points="16.011,139.086 16.011,129.158 16.011,129.158 17.044,129.158 18.083,129.158 18.083,129.158 
		18.083,139.086 18.083,139.086 17.051,139.086 16.011,139.086 	"/>
	<path fill="#009EE0" d="M25.059,139.355c-1.445,0-2.591-0.465-3.441-1.396c-0.849-0.934-1.272-2.194-1.272-3.783
		c0-1.619,0.44-2.906,1.323-3.857c0.883-0.953,2.077-1.43,3.58-1.43c1.208,0,2.201,0.303,2.983,0.906
		c0.781,0.602,1.235,1.418,1.367,2.443l0,0h-2.079l0,0c-0.053-0.432-0.297-0.812-0.731-1.139c-0.431-0.325-0.908-0.489-1.432-0.489
		c-0.901,0-1.606,0.312-2.113,0.937c-0.51,0.622-0.765,1.488-0.765,2.596c0,1.125,0.244,1.982,0.735,2.57
		c0.489,0.588,1.204,0.88,2.144,0.88H25.35c0.802,0,1.429-0.307,1.878-0.917c0.249-0.349,0.431-0.754,0.549-1.223v-0.02l0,0h-2.335
		v-1.709h4.156v5.355h-1.383l-0.203-1.285l0,0l-0.122,0.164c-0.699,0.932-1.644,1.396-2.837,1.396H25.059L25.059,139.355z"/>
	<path fill="#009EE0" d="M32.316,139.086v-9.928l0,0h1.033l0,0h3.972c0.945,0,1.708,0.254,2.287,0.762
		c0.579,0.504,0.867,1.172,0.867,2c0,0.957-0.323,1.652-0.966,2.096c-0.171,0.117-0.364,0.217-0.581,0.297l0,0
		c0.122,0.049,0.233,0.104,0.332,0.162c0.567,0.336,0.862,0.905,0.883,1.7l0.048,1.628c0.009,0.324,0.043,0.555,0.101,0.689
		c0.058,0.136,0.171,0.244,0.337,0.324v0.264H38.34c-0.055-0.104-0.102-0.326-0.143-0.666s-0.062-0.706-0.066-1.098l-0.014-0.918
		c-0.009-0.445-0.141-0.763-0.394-0.951c-0.256-0.189-0.675-0.284-1.266-0.284h-2.067l0,0v3.923l0,0h-1.033H32.316L32.316,139.086z
		 M34.389,133.494L34.389,133.494h2.404c0.537,0,0.938-0.107,1.208-0.327c0.268-0.22,0.401-0.549,0.401-0.989
		c0-0.438-0.126-0.766-0.382-0.984c-0.253-0.219-0.636-0.326-1.144-0.326h-2.487l0,0V133.494L34.389,133.494z"/>
	<path fill="#009EE0" d="M42.296,139.086l3.511-9.928h1.203h1.201l3.52,9.928l0,0h-1.1h-1.1l0,0l-0.673-2.019l0,0h-3.771l0,0
		l-0.65,2.019l0,0H43.37H42.296L42.296,139.086z M46.982,131.367l-1.319,3.992l0,0h2.64l0,0L46.982,131.367L46.982,131.367
		L46.982,131.367z"/>
	<polygon fill="#009EE0" points="55.971,139.086 55.971,130.922 55.971,130.922 52.972,130.922 52.972,130.922 52.972,130.043 
		52.972,129.158 52.972,129.158 61.042,129.158 61.042,129.158 61.042,130.037 61.042,130.922 61.042,130.922 58.043,130.922 
		58.043,130.922 58.043,139.086 58.043,139.086 57.01,139.086 55.971,139.086 	"/>
	<polygon fill="#009EE0" points="62.878,139.086 62.878,129.158 62.878,129.158 63.91,129.158 64.95,129.158 64.95,129.158 
		64.95,139.086 64.95,139.086 63.917,139.086 62.878,139.086 	"/>
	<path fill="#009EE0" d="M71.981,139.355c-1.459,0-2.619-0.465-3.479-1.396c-0.86-0.934-1.291-2.194-1.291-3.783
		c0-1.619,0.431-2.906,1.291-3.857c0.86-0.953,2.019-1.43,3.479-1.43c1.466,0,2.63,0.477,3.487,1.43
		c0.858,0.951,1.287,2.238,1.287,3.857c0,1.589-0.429,2.85-1.287,3.783C74.611,138.891,73.447,139.355,71.981,139.355
		L71.981,139.355z M71.981,137.593c0.846,0,1.507-0.302,1.984-0.908s0.717-1.445,0.717-2.522c0-1.097-0.24-1.957-0.717-2.578
		s-1.139-0.932-1.984-0.932c-0.844,0-1.503,0.311-1.98,0.932c-0.477,0.621-0.717,1.481-0.717,2.578c0,1.077,0.238,1.916,0.712,2.522
		C70.472,137.291,71.133,137.593,71.981,137.593L71.981,137.593z"/>
	<polygon fill="#009EE0" points="81.021,139.086 81.021,139.086 80.055,139.086 79.082,139.086 79.082,139.086 79.082,129.158 
		79.082,129.158 80.17,129.158 81.258,129.158 81.258,129.158 85.241,136.129 85.241,136.129 85.241,136.129 85.241,129.158 
		85.241,129.158 86.207,129.158 87.18,129.158 87.18,129.158 87.18,139.086 86.147,139.086 85.112,139.086 81.021,131.927 
		81.021,131.927 81.021,131.927 81.021,139.086 	"/>
	<path fill="#009EE0" d="M95.32,132.137L95.32,132.137c-0.037-0.473-0.242-0.848-0.62-1.125s-0.871-0.415-1.478-0.415
		c-0.528,0-0.938,0.115-1.236,0.349c-0.297,0.232-0.445,0.555-0.445,0.968c0,0.298,0.155,0.528,0.466,0.688
		c0.307,0.164,0.957,0.355,1.952,0.574c1.443,0.326,2.409,0.699,2.896,1.123c0.486,0.417,0.73,1.09,0.73,2.02
		c0,0.932-0.366,1.671-1.099,2.217c-0.735,0.547-1.727,0.82-2.979,0.82c-1.256,0-2.238-0.289-2.943-0.871
		c-0.708-0.58-1.086-1.406-1.134-2.478l0,0h1.999l0,0c0.021,0.528,0.212,0.931,0.574,1.215c0.36,0.284,0.86,0.427,1.505,0.427
		c0.662,0,1.178-0.106,1.549-0.32c0.371-0.215,0.555-0.51,0.555-0.891c0-0.373-0.134-0.647-0.401-0.822
		c-0.261-0.176-0.818-0.357-1.674-0.547c-1.574-0.353-2.627-0.732-3.158-1.141c-0.528-0.406-0.791-1.039-0.791-1.899
		c0-0.964,0.348-1.727,1.046-2.292c0.698-0.564,1.641-0.848,2.829-0.848c1.111,0,2.017,0.293,2.713,0.879
		c0.698,0.584,1.085,1.373,1.162,2.369l0,0H95.32L95.32,132.137z"/>
	<path fill="#009EE0" d="M99.156,139.086l3.511-9.928h1.203h1.201l3.52,9.928l0,0h-1.099h-1.1l0,0l-0.673-2.019l0,0h-3.771l0,0
		l-0.65,2.019l0,0h-1.067H99.156L99.156,139.086z M103.843,131.367l-1.319,3.992l0,0h2.639l0,0L103.843,131.367L103.843,131.367
		L103.843,131.367z"/>
	<path fill="#009EE0" d="M110.689,139.086v-9.928l0,0h1.033l0,0h3.972c0.945,0,1.708,0.254,2.287,0.762
		c0.579,0.504,0.867,1.172,0.867,2c0,0.957-0.323,1.652-0.966,2.096c-0.17,0.117-0.364,0.217-0.581,0.297l0,0
		c0.122,0.049,0.233,0.104,0.332,0.162c0.567,0.336,0.862,0.905,0.883,1.7l0.049,1.628c0.009,0.324,0.043,0.555,0.101,0.689
		c0.058,0.136,0.17,0.244,0.337,0.324v0.264h-2.289c-0.055-0.104-0.102-0.326-0.143-0.666s-0.063-0.706-0.067-1.098l-0.014-0.918
		c-0.009-0.445-0.141-0.763-0.395-0.951c-0.255-0.189-0.675-0.284-1.265-0.284h-2.068l0,0v3.923l0,0h-1.033H110.689L110.689,139.086
		z M112.762,133.494L112.762,133.494h2.404c0.537,0,0.938-0.107,1.208-0.327c0.268-0.22,0.401-0.549,0.401-0.989
		c0-0.438-0.127-0.766-0.383-0.984c-0.253-0.219-0.636-0.326-1.143-0.326h-2.487l0,0V133.494L112.762,133.494z"/>
	<path fill="#009EE0" d="M121.445,139.086v-9.928l0,0h0.994l0,0h3.814c0.959,0,1.709,0.222,2.248,0.666
		c0.541,0.443,0.811,1.059,0.811,1.847c0,0.823-0.304,1.448-0.912,1.876c-0.098,0.072-0.207,0.139-0.33,0.196l0,0
		c0.236,0.091,0.44,0.198,0.621,0.325c0.636,0.436,0.953,1.074,0.953,1.91c0,1.015-0.313,1.785-0.942,2.314
		c-0.627,0.528-1.544,0.793-2.752,0.793h-3.511l0,0H121.445L121.445,139.086z M123.431,130.867v2.18l0,0h2.37
		c0.518,0,0.905-0.097,1.161-0.29c0.256-0.194,0.385-0.487,0.385-0.878c0-0.337-0.136-0.59-0.405-0.759s-0.678-0.253-1.222-0.253
		H123.431L123.431,130.867z M123.431,134.716v2.649l0,0h2.52c0.542,0,0.947-0.118,1.217-0.352c0.271-0.234,0.405-0.588,0.405-1.063
		c0-0.412-0.138-0.724-0.414-0.928c-0.277-0.206-0.694-0.308-1.248-0.308H123.431L123.431,134.716z"/>
	<polygon fill="#009EE0" points="132.201,139.086 132.201,139.086 132.201,129.158 132.201,129.158 139.51,129.158 139.51,129.158 
		139.51,130.037 139.51,130.922 139.51,130.922 134.275,130.922 134.275,130.922 134.275,133.029 134.275,133.029 139.131,133.029 
		139.131,133.879 139.131,134.736 139.131,134.736 134.275,134.736 134.275,134.736 134.275,137.322 134.275,137.322 
		139.74,137.322 139.74,137.322 139.74,138.201 139.74,139.086 139.74,139.086 132.201,139.086 	"/>
	<polygon fill="#009EE0" points="142.027,139.086 142.027,129.158 142.027,129.158 143.061,129.158 144.1,129.158 144.1,129.158 
		144.1,139.086 144.1,139.086 143.066,139.086 142.027,139.086 	"/>
	<polygon fill="#009EE0" points="148.949,139.086 148.949,130.922 148.949,130.922 145.949,130.922 145.949,130.922 
		145.949,130.043 145.949,129.158 145.949,129.158 154.02,129.158 154.02,129.158 154.02,130.037 154.02,130.922 154.02,130.922 
		151.02,130.922 151.02,130.922 151.02,139.086 151.02,139.086 149.988,139.086 148.949,139.086 	"/>
</g>
</svg>
