<?xml version="1.0" encoding="UTF-8"?>
<svg id="Ebene_2" data-name="Ebene 2" xmlns="http://www.w3.org/2000/svg" viewBox="0 0 561.51 139.95">
  <defs>
    <style>
      .cls-1 {
        fill: #008bd0;
      }

      .cls-2 {
        fill: #e3e4e4;
      }

      .cls-3 {
        fill: #009ee0;
      }

      .cls-4 {
        isolation: isolate;
      }
    </style>
  </defs>
  <g id="Ebene_1-2" data-name="Ebene 1">
    <g>
      <path class="cls-2" d="M136.74,73.77c-1.83-5.63-11.2-16.89-16.62-20.78.59,6.1,2.58,11.81,3.63,17.85.37,1.4-1.12,1.89-1.81,2.65-4.97,2.89-9.95,5.82-15.03,8.41-1.02.64-2.66.88-3.75.54-9.84-12.12-18.63-25.06-24.63-39.07-.2.41,2.06,15.89,2.06,15.89.14,1.42.91,10.22.91,10.22-.02,4.54-.05,9.2-.06,14.05-2.93,2.5-7.19,2.9-9.58,5.86-1.75.02-3.35-1.18-4.88-2.05-6.13-4.21-17.97-16.47-18.54-17.46-3.26-3.27-11.69-14.23-12.9-15.94,1.27,7.98,3.88,16.14,5.84,24.2.1,2.31,3.35,4.51.77,6.76-.56.61-1.38.75-2.15.89.6,2.81,1.6,6,2.89,8.81,0,1.38-2.43,2.33-.85,3.79,1.82,5.22,4.35,10.59,6.5,15.94-.02.31-.8,1.12.08,1.15h0l-.3.33h0s.56.85.47.73c-.16.32.18.61.49.5h0l-.31.15.59.5h0c-1.56.23-1.63-2.26-2.44-3.41.78-.67-.66-.93-.8-1.56-.14-.61-.26-1.1-.65-1.56-.17.27-.74-.04-.76.4,1.11.11.67,1.78,1.5,2.44.51.77.17,1.9,1.19,2.51.14.66-.11,1.12.65,1.43.23.79.52,2.19.48,2.33.02.39.23.07-.24-.21.27-1.39-1.89-1.98-1.67-3.64-.6-.77-.35-1.76-1.36-2.45-1.17-.28.54-1.64-1.05-1.85.19-.73-.61-.94-.28-1.49-.15-.17-.37-.06-.56-.06,1.65,5.33,4.34,10.46,6.66,15.61,1.39,2.94,2.93,5.87,4.9,8.55-.15,1.17-1.62,1.26-2.31,2.06-.81.89-2.24.98-2.76,2.09-.3.37-.77.94-1.36,1.06-5.17-7.65-8.4-16.17-12.14-24.49h0l-.3.37h0c-.35-.34.6-.75-.07-1.06-.14.05-.56-1.39-.56-1.39h0l-.08.14h0c.28-.6-.56-1.48-.56-1.48,0,0-.27-.65-.36-.6h0l-.17-1.19h0c-.19-.17-.23-.74-.4-1.13-.58-1.08-1.36-3.21-1.23-3.35.1-.59-.35-.51-.35-.51-.55-.64.29-1.22-.66-1.65,0,0,0-.67-.39-.96.3-.37-.1-.84-.31-1.27h0l-.34-.29h0c.41-.07.14-.72.02-1.16-.47.56-.4-.47-.6-.72-.05-.04-.64.13-.64.13-.14.06-.31.19-.35.38h0l-.35-.34h0c-.26.28.38.87.38.87h0l-.3.33.56.06h0s.27.65.38.82c.06.18-.05.67-.05.67-.11.41,1.15.69.4,1.04.11.26.14.03-.1-.13-.24.55.05,1.38.34,1.58.08.48.9.3.87-.15,0,0,0,1.52.2,1.68h0l.22-.19.35.38h0c-.12.32-.91.81-.91.9.54.5.9-.32,1.22.37h0l.27.52h0c-.4.29-1.07-.15-1.06.6.57.23-.06.36.45.6,0,0,.19.12-.15.45.28.11.27.52.6.72h0l.06-.54.47.06h0c-.27.15-.29,1.22-.37,1.31-.08.19.11.31.26.43-.52.44.62.36-.09.72.81-.19.27,1.32,1.1,1.35-.65.66.03,1.2.12,1.77h0l.58.41h0c-.27.06-.54.17-.87.15-.13.14.02.39.27.52,0,0,.72.53.61.94-.14,0-.28-.02-.36.11.32.02.44.42.3.96,1.03-.47.76.94,1.11,1.44-.35.96.83,1.42.81,2.49-.06.36-.38-.2-.54.26.54.46.37.69-.02,1.16-.35-.38.31-1-.28-.83-.09.1.15-.5-.28-.74.4-.29-.4-.33-.27-.61.14.03.18-.06.23-.1-.29-.25-.35-.38-.47-.73.1.04.14-.05.18-.14.11-.41-.34-.2-.44-.28-.19-.74-.7-1.47-.7-2.18-.37-.69-.62-1.69-1.04-2.52-.49-1.84-1.34-4.19-1.95-5.76-.96-2.65-1.65-5.33-2.84-8.06-.11-1.02-.27-1.94-.75-2.93-.52-.99-1.21-2.91-1.21-2.91.4-1.01-1.58-6.45-2.03-7.04.11-1.12-.77-3.38-.77-3.38-.31-.43-3.39-12.16-3.81-15.78-.85-1.77-3.76-20.6-3.76-20.6-.82-10.28-2.39-22.86-2.39-33.9.09-.72,1.52,0,1.18-1.06.03-2.31-.98-5.05,1.08-6.7,2.1-.4,4.27-.93,6.12-1.62-.19-.7-.6-1.3-.51-2.1,2.25-1.56,4.76-2.7,7.17-3.87.31,1.1.6,2.15.9,3.24,4.79,14.48,20.06,41.17,20.06,41.17,0,0,6.04,8.3,6.23,8.47,1.61,2.04,5.55,7.13,5.55,7.13h0l-.1-.08h0c.03.53,3.05,3.55,3.27,4.16.29.2,1,1.14,1.39,1.52,0,0-4.78-34.55-8.45-50.97h0l-.48-.37h0c.66-1.2,1.43-2.09,2.58-2.83,2.72-.08,5.42-.91,8.04-1.16.23-2.86,3.92-2.15,5.88-3.21.75-.49,1.71-.64,2.56-.92,1.14.42,1.5,1.73,2.16,2.63,10.82,16.56,15.71,35.93,28.14,51.67-1.27-5.84-3.06-12-4.34-18.11-1.28-6.06-3.68-19.31-3.68-19.31-.48-5.84-.68-12.24-1.02-18.18.33-.6,1-.28,1.53-.54h0l5.53-1.41.24.21h0s.13-.15.12-.23h.09c.31.56-.23,1.97-.19,2.05h0l.1.08h-.09c-.25.47-.17,4.43.1,4.94.51.06.14.84.84.88h0l.21-.32h0c.25-2.47-.02-5.12,1.27-7.25,3.43-2.52,8.58-2.13,12.73-3.46,1.35.23,3.44-.21,4.29,1.34,1.06,2.83,1.32,6.06,2.25,8.94,3.33,11.28,6.11,22.63,11.28,33.08,1.15,1.93,17.92,29.95,19.38,32.44,4.29,5.52,9.52,12.14,14.85,17.33.52.99,1.97,1.88,2.85,2.72.53,1.04,2.08,1.43,2.38,2.43-.1-.04-.15-.12-.23-.12-.3.37.13.61.38.87-.38-.15-.24.46-.64.13h0l.36.6h0c-1.37-1.16-2.97-2.49-4.35-3.65-.35.29.26.43.27.69.63.4,1.09,1.09,1.68,1.63h0l-.22.23.34.29h0c.55-.84.73.44.81.48h0l-.21.32h0c.22.48,1.03.25,1.07.91-2.48-1.27-4.13-3.93-6.58-5.29-.33-.82-1.38-1.25-1.78-1.89h0l-.43-.19h0c-.79-.75-2.29-2.53-2.29-2.53-.1-.08-.26-.43-.57-.27-.08.19-.31.28-.19.55.22.48.45-.16.7.18-.23.59.64.63.73,1.2.31-.2.62.31.91.48.51.68.35,1.14,1.2,1.44h0l.35.29-.17.23.2.21h0c.48-.39.15.26.4.38h0l.7.85h0s-.13.1-.08.19c.49.5.61.23,1.16.82.04-.05-.79-.13-1.13-.37-.14.05-.12.23-.12.32-.27.02-1.12-.91-1.42-1.29h0l-.4.34,1.43,1.52-.95-.48h0s-.82.85-.02.98h0l.48.37.08-.1h0c1.02,2.12,3.09,2.75,4.63,4.52-.31.28-.65-.76-.93-.03h0l.99,1.1-.37-.06.17.39h0c-2.92-2.23-5.3-4.92-8.12-7.06h0l-.22.23,1.92,1.89h0c-.1-.04-.15-.12-.23-.07-.27.15.02.31.12.39.19.12.3.34.48.32h0l.08-.14h0c.1.13.29.16.25.3h0l-.08.14.24.21.08-.14h0c.62.27.72,1.11,1.31,1.65.1.13-.56-.73-.9-.39h0l1.09,1.09h0c-.14-.03-.2-.21-.33-.16.08.48.27.56.16,1.06-.35.2-.29,1.13-1.11,1.23-.56,1.23-1.64,2.33-1.88,3.64-.4.34-.81.36-1.19.07-11.04-10.76-19.14-22.67-27.7-35.01h-.02Z"/>
      <polygon class="cls-1" points="155.53 63.75 158.81 63.75 158.81 67.56 155.53 67.56 155.53 63.75"/>
      <polygon class="cls-1" points="182.98 63.75 186.26 63.75 186.26 67.56 182.98 67.56 182.98 63.75"/>
      <polygon class="cls-3" points="0 21.69 5.64 21.69 5.64 67.56 0 67.56 0 21.69"/>
      <polygon class="cls-3" points="15.23 21.69 43.83 21.69 43.83 27.32 20.82 27.32 20.82 41.24 41.04 41.24 41.04 46.7 20.82 46.7 20.82 67.56 15.23 67.56 15.23 21.69"/>
      <path class="cls-3" d="M67.8,48.77l-6.26-20.26-6.65,20.26h12.91ZM58.62,21.69h6.31l14.95,45.87h-6.12l-4.18-13.73h-16.3l-4.46,13.73h-5.72l15.52-45.87h0Z"/>
      <polygon class="cls-3" points="84.97 21.69 90.41 21.69 90.41 44.05 110.5 21.69 118.21 21.69 101.07 40.18 118.69 67.56 111.42 67.56 97 44.55 90.41 51.58 90.41 67.56 84.97 67.56 84.97 21.69"/>
      <path class="cls-3" d="M147.43,49.35c1.12.62,1.98,1.43,2.56,2.42.56.94.94,2.05,1.13,3.3.17.86.25,2.24.25,4.13h-12.33c.05,1.9.45,3.43,1.21,4.58.76,1.14,1.92,1.72,3.51,1.72,1.48,0,2.65-.54,3.54-1.63.5-.63.86-1.35,1.07-2.18h2.78c-.07.68-.32,1.46-.74,2.3-.41.84-.87,1.53-1.39,2.06-.86.94-1.92,1.56-3.19,1.89-.68.19-1.45.28-2.31.28-2.1,0-3.87-.85-5.33-2.54-1.46-1.7-2.18-4.08-2.18-7.13s.73-5.45,2.2-7.33,3.38-2.81,5.75-2.81c1.19,0,2.35.31,3.47.94h0ZM148.47,56.7c-.11-1.36-.39-2.45-.8-3.27-.77-1.52-2.07-2.27-3.88-2.27-1.3,0-2.39.52-3.26,1.57-.88,1.04-1.35,2.36-1.4,3.97h9.35,0Z"/>
      <polygon class="cls-3" points="166 41.87 172.62 63.75 179.18 41.87 182.68 41.87 174.26 67.56 170.95 67.56 162.54 41.87 166 41.87"/>
      <polygon class="cls-3" points=".08 72.86 .08 72.86 .97 72.86 1.85 72.86 1.85 72.86 3.62 78.97 3.61 78.97 3.61 78.97 5.37 72.86 5.37 72.86 6.23 72.86 7.09 72.86 7.09 72.86 4.38 80.85 3.59 80.85 2.79 80.85 .08 72.86"/>
      <polygon class="cls-3" points="8.46 80.85 8.46 80.85 8.46 72.86 8.46 72.86 14.36 72.86 14.36 72.86 14.36 73.56 14.36 74.28 14.36 74.28 10.13 74.28 10.13 74.28 10.13 75.98 10.13 75.98 14.05 75.98 14.05 76.66 14.05 77.35 14.05 77.35 10.13 77.35 10.13 77.35 10.13 79.43 10.13 79.43 14.54 79.43 14.54 79.43 14.54 80.14 14.54 80.85 14.54 80.85 8.46 80.85"/>
      <path class="cls-3" d="M16.21,80.85v-8.01h4.03c.76,0,1.38.2,1.85.61.47.4.7.94.7,1.61,0,.77-.26,1.33-.78,1.69-.14.1-.29.18-.47.24h0c.1.04.19.08.27.13.46.27.69.73.71,1.37l.04,1.31c0,.26.03.45.08.56.05.11.14.19.27.26v.21h-1.85c-.05-.08-.08-.27-.11-.54-.03-.27-.05-.57-.06-.89v-.74c-.02-.35-.13-.61-.33-.77-.21-.15-.54-.23-1.02-.23h-1.67v3.16h-1.67,0ZM17.88,76.35h1.93c.44,0,.76-.09.98-.27.22-.18.32-.44.32-.8s-.1-.61-.31-.79c-.2-.18-.52-.27-.92-.27h-2.01v2.12h0Z"/>
      <polygon class="cls-3" points="24.57 80.85 24.57 80.85 24.57 72.86 24.57 72.86 30.46 72.86 30.46 72.86 30.46 73.56 30.46 74.28 30.46 74.28 26.24 74.28 26.24 74.28 26.24 75.98 26.24 75.98 30.15 75.98 30.15 76.66 30.15 77.35 30.15 77.35 26.24 77.35 26.24 77.35 26.24 79.43 26.24 79.43 30.65 79.43 30.65 79.43 30.65 80.14 30.65 80.85 30.65 80.85 24.57 80.85"/>
      <polygon class="cls-3" points="32.18 80.85 32.18 72.86 32.18 72.86 33.02 72.86 33.85 72.86 33.85 72.86 33.85 80.85 33.85 80.85 33.02 80.85 32.18 80.85"/>
      <polygon class="cls-3" points="37.2 80.85 37.2 80.85 36.42 80.85 35.64 80.85 35.64 80.85 35.64 72.86 35.64 72.86 36.51 72.86 37.39 72.86 37.39 72.86 40.61 78.48 40.61 78.48 40.61 78.48 40.61 72.86 40.61 72.86 41.38 72.86 42.16 72.86 42.16 72.86 42.16 80.85 41.33 80.85 40.5 80.85 37.2 75.09 37.2 75.09 37.2 75.09 37.2 80.85"/>
      <polygon class="cls-3" points="48.3 80.85 48.3 72.86 48.3 72.86 53.99 72.86 53.99 72.86 53.99 73.56 53.99 74.28 53.99 74.28 49.97 74.28 49.97 74.28 49.97 76.1 49.97 76.1 53.47 76.1 53.47 76.78 53.47 77.47 53.47 77.47 49.97 77.47 49.97 77.47 49.97 80.85 49.14 80.85 48.3 80.85"/>
      <path class="cls-3" d="M61.83,77.84c0,1.14-.25,1.97-.76,2.48s-1.33.76-2.47.76-1.91-.27-2.44-.79c-.52-.52-.79-1.35-.8-2.44v-4.99h1.67v5.04c0,.57.13,1.01.39,1.29.26.29.65.43,1.18.43.56,0,.96-.13,1.2-.39.24-.27.36-.71.36-1.33v-5.04h1.67v4.99h0s0,0,0,0ZM56.81,70.66h1.4v1.28h-1.4v-1.28h0ZM58.98,70.66h1.4v1.28h-1.4v-1.28h0Z"/>
      <path class="cls-3" d="M63.78,80.85v-8.01h4.03c.77,0,1.38.2,1.85.61.47.4.7.94.7,1.61,0,.77-.26,1.33-.78,1.69-.14.1-.29.18-.47.24h0c.1.04.18.08.27.13.46.27.69.73.71,1.37l.04,1.31c0,.26.03.45.08.56.05.11.14.19.27.26v.21h-1.85c-.05-.08-.08-.27-.11-.54-.03-.27-.05-.57-.06-.89v-.74c-.02-.35-.12-.61-.33-.77s-.55-.23-1.02-.23h-1.67v3.16h-1.67,0ZM65.45,76.35h1.93c.43,0,.76-.09.97-.27.22-.18.32-.44.32-.8s-.11-.61-.31-.79c-.2-.18-.52-.27-.92-.27h-2.01v2.12h0Z"/>
      <polygon class="cls-3" points="77.84 80.85 77.84 80.85 77.06 80.85 76.28 80.85 76.28 80.85 76.28 72.86 76.28 72.86 77.5 72.86 78.73 72.86 78.73 72.86 80.18 79.19 80.18 79.19 80.18 79.19 81.62 72.86 81.62 72.86 82.83 72.86 84.04 72.86 84.04 72.86 84.04 80.85 84.04 80.85 83.26 80.85 82.47 80.85 82.47 80.85 82.47 74.13 82.47 74.13 80.97 80.85 80.15 80.85 79.34 80.85 77.84 73.98 77.84 73.98 77.84 80.85"/>
      <path class="cls-3" d="M92.36,77.84c0,1.14-.25,1.97-.76,2.48s-1.33.76-2.47.76-1.91-.27-2.43-.79c-.52-.52-.79-1.35-.8-2.44v-4.99h1.67v5.04c0,.57.13,1.01.39,1.29.26.29.65.43,1.17.43.56,0,.96-.13,1.2-.39.24-.27.36-.71.36-1.33v-5.04h1.67v4.99h.01Z"/>
      <polygon class="cls-3" points="94.32 80.85 94.32 80.85 94.32 72.86 94.32 72.86 95.15 72.86 95.98 72.86 95.98 72.86 95.98 79.43 95.98 79.43 99.97 79.43 99.97 79.43 99.97 80.14 99.97 80.85 99.97 80.85 94.32 80.85"/>
      <polygon class="cls-3" points="103.16 80.85 103.16 74.28 103.16 74.28 100.74 74.28 100.74 74.28 100.74 73.57 100.74 72.86 100.74 72.86 107.24 72.86 107.24 72.86 107.24 73.56 107.24 74.28 107.24 74.28 104.83 74.28 104.83 74.28 104.83 80.85 104.83 80.85 104 80.85 103.16 80.85"/>
      <polygon class="cls-3" points="108.41 80.85 108.41 72.86 108.41 72.86 109.25 72.86 110.09 72.86 110.09 72.86 110.09 80.85 110.09 80.85 109.25 80.85 108.41 80.85"/>
      <polygon class="cls-3" points="112.08 80.85 112.08 72.86 112.08 72.86 112.91 72.86 113.75 72.86 113.75 72.86 113.75 76.17 113.75 76.17 116.81 72.86 116.81 72.86 117.88 72.86 118.95 72.86 118.95 72.86 115.75 76.12 115.75 76.12 119.16 80.85 119.16 80.85 118.07 80.85 116.97 80.85 116.97 80.85 114.56 77.34 114.56 77.34 113.75 78.17 113.75 78.17 113.75 80.85 113.75 80.85 112.92 80.85 112.08 80.85"/>
      <path class="cls-3" d="M126.73,77.84c0,1.14-.25,1.97-.76,2.48s-1.33.76-2.47.76-1.91-.27-2.43-.79c-.52-.52-.79-1.35-.8-2.44v-4.99h1.67v5.04c0,.57.13,1.01.39,1.29.26.29.65.43,1.18.43.56,0,.96-.13,1.2-.39.24-.27.36-.71.36-1.33v-5.04h1.67v4.99h0s0,0,0,0Z"/>
      <polygon class="cls-3" points="128.68 80.85 128.68 80.85 128.68 72.86 128.68 72.86 129.51 72.86 130.35 72.86 130.35 72.86 130.35 79.43 130.35 79.43 134.33 79.43 134.33 79.43 134.33 80.14 134.33 80.85 134.33 80.85 128.68 80.85"/>
      <polygon class="cls-3" points="137.53 80.85 137.53 74.28 137.53 74.28 135.11 74.28 135.11 74.28 135.11 73.57 135.11 72.86 135.11 72.86 141.61 72.86 141.61 72.86 141.61 73.56 141.61 74.28 141.61 74.28 139.2 74.28 139.2 74.28 139.2 80.85 139.2 80.85 138.37 80.85 137.53 80.85"/>
      <path class="cls-3" d="M149.34,77.84c0,1.14-.25,1.97-.76,2.48s-1.33.76-2.48.76-1.91-.27-2.43-.79c-.52-.52-.79-1.35-.8-2.44v-4.99h1.67v5.04c0,.57.13,1.01.39,1.29.26.29.65.43,1.18.43.56,0,.96-.13,1.2-.39.24-.27.36-.71.36-1.33v-5.04h1.67v4.99h0s0,0,0,0Z"/>
      <path class="cls-3" d="M151.28,80.85v-8.01h4.04c.77,0,1.38.2,1.85.61.47.4.7.94.7,1.61,0,.77-.26,1.33-.77,1.69-.14.1-.3.18-.47.24h0c.1.04.19.08.27.13.46.27.69.73.71,1.37l.04,1.31c0,.26.03.45.08.56.05.11.14.19.27.26v.21h-1.85c-.04-.08-.08-.27-.11-.54-.03-.27-.05-.57-.06-.89v-.74c-.02-.35-.13-.61-.33-.77-.21-.15-.55-.23-1.02-.23h-1.67v3.16h-1.68ZM152.95,76.35h1.93c.43,0,.76-.09.98-.27.22-.18.32-.44.32-.8s-.1-.61-.31-.79c-.2-.18-.51-.27-.92-.27h-2.01v2.12h0Z"/>
      <polygon class="cls-3" points="159.64 80.85 159.64 80.85 159.64 72.86 159.64 72.86 165.53 72.86 165.53 72.86 165.53 73.56 165.53 74.28 165.53 74.28 161.31 74.28 161.31 74.28 161.31 75.98 161.31 75.98 165.22 75.98 165.22 76.66 165.22 77.35 165.22 77.35 161.31 77.35 161.31 77.35 161.31 79.43 161.31 79.43 165.71 79.43 165.71 79.43 165.71 80.14 165.71 80.85 165.71 80.85 159.64 80.85"/>
      <polygon class="cls-3" points="167.38 80.85 167.38 80.85 167.38 72.86 167.38 72.86 168.22 72.86 169.05 72.86 169.05 72.86 169.05 79.43 169.05 79.43 173.03 79.43 173.03 79.43 173.03 80.14 173.03 80.85 173.03 80.85 167.38 80.85"/>
      <polygon class="cls-3" points="174.5 80.85 174.5 80.85 174.5 72.86 174.5 72.86 175.34 72.86 176.18 72.86 176.18 72.86 176.18 79.43 176.18 79.43 180.15 79.43 180.15 79.43 180.15 80.14 180.15 80.85 180.15 80.85 174.5 80.85"/>
      <polygon class="cls-3" points="181.62 80.85 181.62 80.85 181.62 72.86 181.62 72.86 187.51 72.86 187.51 72.86 187.51 73.56 187.51 74.28 187.51 74.28 183.29 74.28 183.29 74.28 183.29 75.98 183.29 75.98 187.21 75.98 187.21 76.66 187.21 77.35 187.21 77.35 183.29 77.35 183.29 77.35 183.29 79.43 183.29 79.43 187.7 79.43 187.7 79.43 187.7 80.14 187.7 80.85 187.7 80.85 181.62 80.85"/>
      <polygon class="cls-3" points=".84 94.12 .84 86.12 .84 86.12 1.67 86.12 2.51 86.12 2.51 86.12 2.51 89.43 2.51 89.43 5.58 86.12 5.58 86.12 6.64 86.12 7.71 86.12 7.71 86.12 4.51 89.38 4.51 89.38 7.92 94.12 7.92 94.12 6.83 94.12 5.73 94.12 5.73 94.12 3.32 90.6 3.32 90.6 2.51 91.44 2.51 91.44 2.51 94.12 2.51 94.12 1.68 94.12 .84 94.12"/>
      <polygon class="cls-3" points="9.56 94.12 9.56 86.12 9.56 86.12 10.4 86.12 11.23 86.12 11.23 86.12 11.23 94.12 11.23 94.12 10.4 94.12 9.56 94.12"/>
      <polygon class="cls-3" points="15.2 94.12 15.2 94.12 14.43 94.12 13.64 94.12 13.64 94.12 13.64 86.12 13.64 86.12 14.52 86.12 15.39 86.12 15.39 86.12 18.6 91.73 18.6 91.73 18.6 91.73 18.6 86.12 18.6 86.12 19.38 86.12 20.17 86.12 20.17 86.12 20.17 94.12 19.34 94.12 18.5 94.12 15.2 88.35 15.2 88.35 15.2 88.35 15.2 94.12"/>
      <path class="cls-3" d="M22.71,94.12v-8h3.42c1.1,0,1.93.32,2.51.97.57.64.85,1.59.85,2.84,0,1.37-.3,2.41-.89,3.13-.59.72-1.46,1.07-2.61,1.07h-3.29ZM24.37,92.74h1.41c.68,0,1.18-.23,1.53-.69.34-.46.51-1.14.51-2.06,0-.83-.16-1.46-.48-1.87-.31-.42-.79-.63-1.43-.63h-1.55v5.25h0s0,0,0,0Z"/>
      <polygon class="cls-3" points="31.69 94.12 31.69 94.12 31.69 86.12 31.69 86.12 37.58 86.12 37.58 86.12 37.58 86.83 37.58 87.54 37.58 87.54 33.35 87.54 33.35 87.54 33.35 89.24 33.35 89.24 37.27 89.24 37.27 89.92 37.27 90.61 37.27 90.61 33.35 90.61 33.35 90.61 33.35 92.7 33.35 92.7 37.76 92.7 37.76 92.7 37.76 93.41 37.76 94.12 37.76 94.12 31.69 94.12"/>
      <path class="cls-3" d="M40.05,94.12v-8h4.04c.76,0,1.38.2,1.85.61.47.41.7.94.7,1.61,0,.77-.26,1.33-.78,1.69-.14.1-.29.18-.47.24h0c.1.04.19.08.27.13.46.27.69.73.71,1.37l.04,1.31c0,.26.03.45.08.56.05.11.14.2.27.27v.21h-1.85c-.05-.08-.08-.26-.11-.54-.03-.27-.05-.57-.06-.89v-.74c-.02-.35-.12-.61-.33-.77s-.54-.23-1.02-.23h-1.67v3.16h-1.68ZM41.72,89.62h1.94c.44,0,.76-.09.98-.27.22-.18.32-.44.32-.8s-.1-.62-.31-.79c-.2-.18-.52-.27-.92-.27h-2.01v2.12h0Z"/>
      <polygon class="cls-3" points="48.48 90.26 51.6 90.26 51.6 91.73 48.48 91.73 48.48 90.26"/>
      <path class="cls-3" d="M65.35,91.11c0,1.15-.25,1.97-.76,2.48s-1.33.76-2.47.76-1.91-.27-2.43-.79c-.52-.52-.79-1.34-.8-2.44v-4.99h1.67v5.04c0,.57.13,1.01.39,1.29.26.28.65.43,1.18.43.56,0,.96-.13,1.2-.39.24-.27.36-.71.36-1.33v-5.04h1.67v4.99h0s0,0,0,0Z"/>
      <polygon class="cls-3" points="69.4 94.12 69.4 94.12 68.62 94.12 67.84 94.12 67.84 94.12 67.84 86.12 67.84 86.12 68.72 86.12 69.59 86.12 69.59 86.12 72.8 91.73 72.8 91.73 72.8 91.73 72.8 86.12 72.8 86.12 73.58 86.12 74.36 86.12 74.36 86.12 74.36 94.12 73.53 94.12 72.7 94.12 69.4 88.35 69.4 88.35 69.4 88.35 69.4 94.12"/>
      <path class="cls-3" d="M76.9,94.12v-8h3.43c1.1,0,1.93.32,2.51.97.57.64.85,1.59.85,2.84,0,1.37-.3,2.41-.89,3.13-.59.72-1.46,1.07-2.61,1.07h-3.29ZM78.57,92.74h1.41c.68,0,1.18-.23,1.52-.69.34-.46.51-1.14.51-2.06,0-.83-.16-1.46-.48-1.87-.31-.42-.79-.63-1.43-.63h-1.55v5.25h0Z"/>
      <path class="cls-3" d="M94.02,86.12h1.67v5.76c0,.81-.22,1.43-.65,1.85-.44.41-1.07.62-1.93.62-.9,0-1.56-.23-1.99-.68-.42-.46-.61-1.16-.59-2.12v-.48h1.59v.48c-.02.48.06.85.22,1.08.16.23.41.35.76.35s.56-.09.71-.26.22-.45.22-.84h0v-5.76h0Z"/>
      <path class="cls-3" d="M104.68,91.11c0,1.15-.25,1.97-.76,2.48s-1.33.76-2.47.76-1.91-.27-2.43-.79c-.52-.52-.79-1.34-.8-2.44v-4.99h1.67v5.04c0,.57.13,1.01.39,1.29.26.28.65.43,1.17.43.56,0,.96-.13,1.2-.39.24-.27.36-.71.36-1.33v-5.04h1.67v4.99h.01Z"/>
      <path class="cls-3" d="M110.69,94.34c-1.17,0-2.09-.38-2.77-1.13-.68-.75-1.02-1.77-1.02-3.05s.35-2.35,1.06-3.11,1.68-1.15,2.89-1.15c.97,0,1.77.24,2.4.73.63.48,1,1.14,1.1,1.97h-1.68c-.04-.35-.24-.65-.59-.92-.35-.26-.73-.4-1.15-.4-.72,0-1.29.25-1.7.76-.41.5-.62,1.2-.62,2.1s.19,1.6.6,2.07c.39.48.97.71,1.72.71h0c.64,0,1.15-.25,1.52-.74.2-.28.35-.6.44-.98v-.02h-1.89v-1.38h3.35v4.31h-1.11l-.16-1.03h0l-.1.13c-.56.75-1.32,1.13-2.29,1.13h0Z"/>
      <polygon class="cls-3" points="116.85 94.12 116.85 94.12 116.85 86.12 116.85 86.12 122.74 86.12 122.74 86.12 122.74 86.83 122.74 87.54 122.74 87.54 118.52 87.54 118.52 87.54 118.52 89.24 118.52 89.24 122.44 89.24 122.44 89.92 122.44 90.61 122.44 90.61 118.52 90.61 118.52 90.61 118.52 92.7 118.52 92.7 122.93 92.7 122.93 92.7 122.93 93.41 122.93 94.12 122.93 94.12 116.85 94.12"/>
      <polygon class="cls-3" points="126.69 94.12 126.69 94.12 125.92 94.12 125.13 94.12 125.13 94.12 125.13 86.12 125.13 86.12 126.01 86.12 126.89 86.12 126.89 86.12 130.1 91.73 130.1 91.73 130.1 91.73 130.1 86.12 130.1 86.12 130.88 86.12 131.66 86.12 131.66 86.12 131.66 94.12 130.83 94.12 129.99 94.12 126.69 88.35 126.69 88.35 126.69 88.35 126.69 94.12"/>
      <path class="cls-3" d="M134.2,94.12v-8h3.43c1.1,0,1.93.32,2.51.97.57.64.85,1.59.85,2.84,0,1.37-.3,2.41-.89,3.13-.59.72-1.46,1.07-2.61,1.07h-3.29ZM135.87,92.74h1.41c.68,0,1.18-.23,1.53-.69.34-.46.51-1.14.51-2.06,0-.83-.16-1.46-.48-1.87-.31-.42-.79-.63-1.43-.63h-1.55v5.25h0Z"/>
      <polygon class="cls-3" points="143.11 94.12 143.11 86.12 143.11 86.12 143.95 86.12 144.78 86.12 144.78 86.12 144.78 89.12 144.78 89.12 147.92 89.12 147.92 89.12 147.92 86.12 147.92 86.12 148.75 86.12 149.59 86.12 149.59 86.12 149.59 94.12 149.59 94.12 148.76 94.12 147.92 94.12 147.92 94.12 147.92 90.49 147.92 90.49 144.78 90.49 144.78 90.49 144.78 94.12 144.78 94.12 143.95 94.12 143.11 94.12"/>
      <polygon class="cls-3" points="152.02 94.12 152.02 86.12 152.02 86.12 152.85 86.12 153.69 86.12 153.69 86.12 153.69 94.12 153.69 94.12 152.86 94.12 152.02 94.12"/>
      <polygon class="cls-3" points="156.18 94.12 156.18 94.12 156.18 86.12 156.18 86.12 157.02 86.12 157.85 86.12 157.85 86.12 157.85 92.7 157.85 92.7 161.83 92.7 161.83 92.7 161.83 93.41 161.83 94.12 161.83 94.12 156.18 94.12"/>
      <polygon class="cls-3" points="163.93 94.12 163.93 86.12 163.93 86.12 169.62 86.12 169.62 86.12 169.62 86.83 169.62 87.54 169.62 87.54 165.59 87.54 165.59 87.54 165.59 89.36 165.59 89.36 169.1 89.36 169.1 90.04 169.1 90.74 169.1 90.74 165.59 90.74 165.59 90.74 165.59 94.12 164.76 94.12 163.93 94.12"/>
      <polygon class="cls-3" points="171.65 94.12 171.65 94.12 171.65 86.12 171.65 86.12 177.55 86.12 177.55 86.12 177.55 86.83 177.55 87.54 177.55 87.54 173.33 87.54 173.33 87.54 173.33 89.24 173.33 89.24 177.25 89.24 177.25 89.92 177.25 90.61 177.25 90.61 173.33 90.61 173.33 90.61 173.33 92.7 173.33 92.7 177.73 92.7 177.73 92.7 177.73 93.41 177.73 94.12 177.73 94.12 171.65 94.12"/>
      <polygon class="cls-3" points="184.74 90.26 187.86 90.26 187.86 91.73 184.74 91.73 184.74 90.26"/>
      <polygon class="cls-3" points="2.2 107.39 2.2 107.39 1.42 107.39 .64 107.39 .64 107.39 .64 99.38 .64 99.38 1.86 99.38 3.09 99.38 3.09 99.38 4.55 105.72 4.55 105.72 4.55 105.72 5.98 99.38 5.98 99.38 7.19 99.38 8.4 99.38 8.4 99.38 8.4 107.39 8.4 107.39 7.62 107.39 6.84 107.39 6.84 107.39 6.84 100.66 6.84 100.66 5.34 107.39 4.51 107.39 3.7 107.39 2.2 100.5 2.2 100.5 2.2 107.39"/>
      <polygon class="cls-3" points="10.49 107.39 10.49 99.38 10.49 99.38 11.32 99.38 12.15 99.38 12.15 99.38 12.15 107.39 12.15 107.39 11.33 107.39 10.49 107.39"/>
      <path class="cls-3" d="M17.78,107.6c-1.16,0-2.09-.37-2.77-1.13-.68-.75-1.02-1.77-1.02-3.05s.35-2.35,1.06-3.11,1.68-1.15,2.89-1.15c.98,0,1.77.24,2.4.73.63.48,1,1.14,1.1,1.97h-1.68c-.04-.35-.24-.65-.59-.92-.35-.26-.73-.39-1.15-.39-.73,0-1.3.25-1.7.76-.41.5-.61,1.2-.61,2.1s.19,1.6.6,2.07c.4.48.97.71,1.73.71h0c.65,0,1.15-.25,1.52-.74.2-.28.35-.6.44-.98v-.02h-1.88v-1.38h3.35v4.31h-1.11l-.16-1.04h0l-.1.13c-.56.75-1.32,1.13-2.29,1.13h-.03Z"/>
      <path class="cls-3" d="M23.63,107.39v-8h4.04c.76,0,1.38.2,1.85.61.47.4.7.94.7,1.61,0,.77-.26,1.33-.78,1.69-.14.1-.29.18-.47.24h0c.1.04.19.08.27.13.46.27.69.73.71,1.37l.04,1.31c0,.26.03.44.08.56.05.11.14.19.27.26v.21h-1.85c-.05-.08-.08-.27-.11-.54s-.05-.57-.06-.89v-.74c-.02-.36-.12-.61-.33-.77-.21-.15-.54-.23-1.02-.23h-1.67v3.16h-1.67s0,.01,0,.01ZM25.3,102.87h1.93c.43,0,.76-.09.98-.27.22-.18.32-.44.32-.8s-.1-.62-.31-.79c-.2-.18-.52-.27-.92-.27h-2.01v2.12h0Z"/>
      <path class="cls-3" d="M31.68,107.39l2.83-8h1.94l2.84,8h-1.77l-.54-1.63h-3.04l-.52,1.63h-1.72ZM35.45,101.17l-1.06,3.22h2.13l-1.06-3.22h0Z"/>
      <polygon class="cls-3" points="42.7 107.39 42.7 100.8 42.7 100.8 40.28 100.8 40.28 100.8 40.28 100.09 40.28 99.38 40.28 99.38 46.78 99.38 46.78 99.38 46.78 100.09 46.78 100.8 46.78 100.8 44.37 100.8 44.37 100.8 44.37 107.39 44.37 107.39 43.53 107.39 42.7 107.39"/>
      <polygon class="cls-3" points="48.27 107.39 48.27 99.38 48.27 99.38 49.1 99.38 49.94 99.38 49.94 99.38 49.94 107.39 49.94 107.39 49.1 107.39 48.27 107.39"/>
      <path class="cls-3" d="M55.6,107.6c-1.18,0-2.11-.37-2.81-1.13-.69-.75-1.04-1.77-1.04-3.05s.35-2.35,1.04-3.11c.69-.77,1.63-1.15,2.81-1.15s2.12.39,2.81,1.15c.69.77,1.04,1.81,1.04,3.11s-.35,2.3-1.04,3.05c-.69.75-1.63,1.13-2.81,1.13h0ZM55.6,106.18c.69,0,1.22-.24,1.6-.73.38-.49.58-1.17.58-2.03s-.19-1.58-.58-2.08c-.39-.5-.92-.75-1.6-.75s-1.21.25-1.6.75c-.39.5-.58,1.19-.58,2.08s.19,1.55.57,2.03c.39.49.92.73,1.6.73h0Z"/>
      <polygon class="cls-3" points="62.89 107.39 62.89 107.39 62.11 107.39 61.32 107.39 61.32 107.39 61.32 99.38 61.32 99.38 62.2 99.38 63.08 99.38 63.08 99.38 66.29 105 66.29 105 66.29 105 66.29 99.38 66.29 99.38 67.07 99.38 67.85 99.38 67.85 99.38 67.85 107.39 67.02 107.39 66.18 107.39 62.89 101.62 62.89 101.62 62.89 101.62 62.89 107.39"/>
      <path class="cls-3" d="M74.41,101.79h0c-.03-.38-.19-.69-.5-.9-.31-.22-.7-.33-1.19-.33-.43,0-.76.1-1,.28s-.35.44-.35.78c0,.24.12.43.38.56.25.13.77.28,1.57.46,1.16.27,1.94.56,2.34.9s.59.88.59,1.63-.3,1.35-.89,1.79c-.6.44-1.39.66-2.4.66s-1.81-.23-2.37-.7c-.57-.47-.88-1.14-.91-2h1.61c.02.43.17.75.46.98s.69.35,1.21.35.95-.09,1.25-.26c.3-.17.45-.41.45-.72s-.11-.52-.32-.66c-.21-.14-.66-.29-1.35-.44-1.27-.28-2.12-.59-2.55-.92-.43-.33-.64-.84-.64-1.53,0-.77.28-1.39.85-1.85.56-.45,1.32-.68,2.28-.68.89,0,1.63.23,2.18.71.56.47.87,1.1.93,1.91h-1.64Z"/>
      <path class="cls-3" d="M77.51,107.39l2.83-8h1.93l2.84,8h-1.77l-.54-1.63h-3.04l-.52,1.63h-1.72ZM81.28,101.17l-1.06,3.22h2.13l-1.06-3.22h0Z"/>
      <path class="cls-3" d="M86.8,107.39v-8h4.03c.76,0,1.38.2,1.85.61.47.4.7.94.7,1.61,0,.77-.26,1.33-.78,1.69-.14.1-.29.18-.47.24h0c.1.04.19.08.27.13.46.27.69.73.71,1.37l.04,1.31c0,.26.03.44.08.56.05.11.14.19.27.26v.21h-1.85c-.05-.08-.08-.27-.11-.54s-.05-.57-.06-.89v-.74c-.02-.36-.12-.61-.33-.77-.2-.15-.55-.23-1.02-.23h-1.67v3.16h-1.67s0,.01,0,.01ZM88.47,102.87h1.93c.44,0,.76-.09.98-.27.22-.18.32-.44.32-.8s-.11-.62-.31-.79c-.2-.18-.52-.27-.92-.27h-2.01v2.12h0Z"/>
      <path class="cls-3" d="M95.47,107.39v-8h3.88c.77,0,1.38.18,1.81.54.44.35.65.85.65,1.49s-.24,1.17-.73,1.52c-.08.06-.17.11-.27.16h0c.19.07.35.16.5.26.52.35.77.86.77,1.54,0,.81-.25,1.44-.76,1.86-.51.43-1.24.64-2.22.64h-3.63ZM97.07,100.76v1.76h1.91c.42,0,.73-.08.93-.23.21-.15.31-.4.31-.71,0-.27-.11-.48-.32-.61s-.55-.2-.98-.2h-1.85ZM97.07,103.87v2.14h2.03c.43,0,.77-.1.98-.28s.32-.48.32-.85c0-.33-.11-.58-.33-.75-.23-.17-.56-.25-1.01-.25h-2Z"/>
      <polygon class="cls-3" points="104.14 107.39 104.14 107.39 104.14 99.38 104.14 99.38 110.03 99.38 110.03 99.38 110.03 100.09 110.03 100.8 110.03 100.8 105.81 100.8 105.81 100.8 105.81 102.5 105.81 102.5 109.73 102.5 109.73 103.19 109.73 103.88 109.73 103.88 105.81 103.88 105.81 103.88 105.81 105.96 105.81 105.96 110.22 105.96 110.22 105.96 110.22 106.67 110.22 107.39 110.22 107.39 104.14 107.39"/>
      <polygon class="cls-3" points="112.06 107.39 112.06 99.38 112.06 99.38 112.9 99.38 113.73 99.38 113.73 99.38 113.73 107.39 113.73 107.39 112.9 107.39 112.06 107.39"/>
      <polygon class="cls-3" points="117.64 107.39 117.64 100.8 117.64 100.8 115.22 100.8 115.22 100.8 115.22 100.09 115.22 99.38 115.22 99.38 121.73 99.38 121.73 99.38 121.73 100.09 121.73 100.8 121.73 100.8 119.31 100.8 119.31 100.8 119.31 107.39 119.31 107.39 118.48 107.39 117.64 107.39"/>
    </g>
    <g class="cls-4">
      <path class="cls-2" d="M191.65,37.79h-22.94v-16.23h65.66v16.23h-23.32v69.21h-19.39V37.79Z"/>
      <path class="cls-2" d="M264.03,21.57v85.43h-19.39V21.57h19.39Z"/>
      <path class="cls-2" d="M343.5,104.59c-3.55,1.77-11.53,3.68-21.93,3.68-29.53,0-44.74-18.38-44.74-42.72,0-29.15,20.79-45.38,46.65-45.38,10.01,0,17.62,2.03,21.04,3.8l-3.93,15.34c-3.93-1.65-9.38-3.17-16.23-3.17-15.34,0-27.25,9.25-27.25,28.27,0,17.11,10.14,27.89,27.38,27.89,5.83,0,12.3-1.27,16.1-2.79l2.91,15.08Z"/>
      <path class="cls-2" d="M356.17,21.57h19.14v37.77h.38c1.9-3.3,3.93-6.34,5.83-9.38l19.39-28.39h23.7l-28.27,36.38,29.79,49.05h-22.56l-20.92-36.89-7.35,9v27.89h-19.14V21.57h0Z"/>
      <path class="cls-2" d="M484.82,70.88h-31.43v20.28h35.11v15.84h-54.5V21.57h52.73v15.84h-33.34v17.75h31.43v15.72h0Z"/>
      <path class="cls-2" d="M518.79,37.79h-22.94v-16.23h65.66v16.23h-23.32v69.21h-19.39V37.79h0Z"/>
    </g>
  </g>
</svg>